<?xml version="1.0" standalone="no"?>
<!DOCTYPE svg PUBLIC "-//W3C//DTD SVG 20010904//EN"
 "http://www.w3.org/TR/2001/REC-SVG-20010904/DTD/svg10.dtd">
<svg version="1.0" xmlns="http://www.w3.org/2000/svg"
 width="670.000000pt" height="670.000000pt" viewBox="0 0 670.000000 670.000000"
 preserveAspectRatio="xMidYMid meet">
<metadata>
Created by potrace 1.14, written by Peter Selinger 2001-2017
</metadata>
<g transform="translate(0.000000,670.000000) scale(0.100000,-0.100000)"
fill="#000000" stroke="none">
<path d="M3720 5660 c0 -5 9 -10 21 -10 11 0 17 5 14 10 -3 6 -13 10 -21 10
-8 0 -14 -4 -14 -10z"/>
<path d="M3828 5654 c-10 -9 43 -59 59 -56 8 2 17 -6 20 -17 6 -24 8 -25 34
-11 25 14 25 34 -1 27 -13 -3 -25 2 -34 14 -8 11 -20 17 -29 14 -9 -4 -21 2
-29 14 -8 12 -17 18 -20 15z"/>
<path d="M3469 5551 c-11 -30 -11 -30 -40 -16 -25 14 -29 14 -29 1 0 -8 -8
-21 -18 -28 -29 -22 -68 -89 -41 -73 6 4 18 -3 27 -16 l16 -23 6 22 c5 24 27
31 22 7 -2 -10 6 -14 26 -12 18 1 28 7 25 14 -3 6 -11 9 -18 7 -20 -8 -27 13
-13 35 12 20 50 36 80 32 19 -2 35 18 22 28 -5 3 -14 15 -20 25 -17 31 -34 30
-45 -3z"/>
<path d="M1394 5541 c-82 -37 -140 -133 -129 -215 2 -20 0 -34 -4 -31 -26 15
-14 -298 14 -400 8 -27 16 -66 20 -85 3 -19 11 -46 18 -60 9 -17 10 -47 5 -98
-3 -41 -5 -82 -3 -93 4 -17 -1 -19 -53 -13 -31 3 -71 10 -89 16 -22 6 -39 6
-52 -1 -11 -6 -35 -11 -53 -11 -90 0 -263 -104 -436 -262 -37 -34 -131 -168
-117 -168 2 0 -7 -16 -20 -36 -14 -20 -22 -40 -20 -44 3 -5 1 -12 -5 -15 -13
-8 -11 -135 1 -135 5 0 6 -6 3 -14 -3 -8 0 -17 7 -22 8 -4 10 -3 5 5 -9 13 42
63 56 55 4 -3 8 0 8 7 0 10 3 10 12 1 15 -15 28 -16 28 -2 0 5 -10 12 -22 15
-13 3 -28 16 -34 29 -9 20 -8 22 11 18 16 -3 28 6 45 30 13 19 32 39 43 44 11
5 25 18 31 29 6 11 15 23 20 26 5 4 6 12 2 18 -4 7 -1 9 8 5 23 -9 39 5 25 22
-9 11 -9 14 1 14 8 0 10 3 6 7 -3 4 8 21 25 39 20 20 29 39 26 48 -4 9 -2 16
3 16 18 0 10 20 -7 21 -18 1 -18 1 27 15 13 5 13 6 0 15 -13 8 -12 12 5 25 17
13 18 16 5 24 -13 8 -12 10 3 10 11 0 21 -9 24 -20 3 -11 13 -20 22 -20 14 -1
14 -2 -1 -14 -15 -11 -14 -13 11 -13 20 0 28 4 24 14 -3 7 0 13 6 13 6 0 11
-9 11 -20 0 -11 -5 -20 -11 -20 -5 0 -8 -4 -4 -9 3 -6 -1 -25 -9 -43 -9 -21
-15 -27 -15 -15 -1 10 -7 17 -13 14 -7 -2 -12 -16 -11 -31 1 -17 -3 -26 -13
-26 -8 0 -14 5 -14 11 0 5 -5 7 -10 4 -6 -4 -8 -11 -5 -16 9 -13 -9 -11 -22 2
-9 9 -10 7 -6 -10 3 -11 11 -21 18 -21 7 0 15 -3 18 -7 2 -5 2 -2 1 5 -5 18
16 15 23 -3 3 -9 -2 -22 -13 -30 -18 -14 -18 -14 -1 -15 26 0 10 -20 -16 -20
-24 0 -67 -26 -67 -39 0 -5 7 -12 16 -15 11 -4 15 -2 11 8 -5 12 11 26 29 26
10 0 -9 -45 -28 -69 -10 -14 -16 -32 -13 -43 4 -12 1 -18 -9 -18 -9 0 -16 -7
-16 -15 0 -8 -7 -15 -15 -15 -18 0 -93 -38 -101 -52 -3 -5 -20 -8 -37 -6 -17
2 -32 -2 -34 -9 -3 -7 3 -10 15 -6 11 2 23 0 26 -6 4 -6 -5 -9 -26 -6 -18 2
-39 0 -47 -4 -16 -10 -6 -31 15 -31 8 0 14 -5 14 -10 0 -6 20 -19 44 -30 24
-10 47 -23 50 -29 4 -6 17 -11 29 -11 23 0 83 -19 105 -33 17 -12 8 -22 -54
-62 -59 -38 -138 -136 -149 -186 -5 -22 -2 -36 12 -51 22 -24 82 -66 145 -102
53 -29 236 -76 298 -76 27 0 39 -4 38 -12 -2 -10 24 -12 112 -9 63 2 120 7
125 11 6 4 22 8 36 8 l26 0 -42 -92 c-90 -193 -154 -418 -181 -641 -20 -159
-14 -489 10 -635 100 -589 446 -1127 935 -1454 140 -93 310 -184 427 -226 287
-105 464 -145 508 -116 26 17 41 19 121 17 43 -1 56 -4 45 -11 -8 -5 -30 -10
-47 -10 -56 0 -40 -26 20 -34 173 -20 487 8 701 64 355 93 716 296 980 549
681 656 867 1674 462 2527 -55 114 -78 156 -155 274 -20 30 -37 57 -38 59 -2
2 -6 1 -10 -3 -4 -3 1 -20 10 -36 13 -21 16 -40 11 -69 -4 -23 -10 -41 -14
-41 -10 0 -29 -48 -34 -85 -5 -42 -22 -82 -46 -107 -10 -11 -16 -26 -13 -32 3
-6 3 -8 -2 -4 -4 4 -13 4 -19 -1 -6 -4 -20 -11 -30 -15 -16 -5 -17 -4 -7 8 10
11 9 16 -2 23 -8 4 -19 18 -26 30 -9 19 -8 28 5 49 10 14 28 30 41 35 13 5 23
16 23 24 0 9 7 27 16 40 9 14 13 25 9 25 -4 0 -3 6 3 13 12 14 5 57 -9 57 -5
0 -9 -8 -9 -17 0 -33 -27 -96 -45 -105 -14 -8 -16 -7 -12 8 3 11 9 44 12 75 5
39 14 64 31 82 13 14 27 44 30 67 4 23 13 44 20 47 8 3 14 14 14 24 0 17 3 18
20 9 17 -9 20 -8 20 12 1 13 7 34 15 48 8 14 14 39 13 55 0 17 -2 22 -5 12 -3
-12 -11 -15 -28 -11 -21 5 -23 3 -18 -17 4 -15 3 -20 -5 -15 -7 4 -12 2 -12
-3 0 -6 -4 -11 -10 -11 -5 0 -10 14 -10 31 0 17 4 28 10 24 6 -3 10 -1 10 4 0
6 -9 11 -21 11 -12 0 -19 5 -16 13 2 6 11 11 21 9 12 -2 16 5 16 28 0 29 13
40 25 20 3 -5 10 -10 14 -10 6 0 71 85 71 94 0 2 -16 2 -36 0 -27 -2 -34 1
-30 11 3 8 1 17 -4 20 -6 4 -10 14 -10 25 0 19 -19 30 -51 30 -11 0 -19 7 -19
16 0 10 6 13 18 10 16 -5 19 -1 17 23 -1 17 -7 36 -14 44 -6 8 -9 21 -5 30 3
10 -4 22 -20 32 -14 10 -26 24 -26 31 0 8 -4 14 -8 14 -17 0 -8 34 14 54 26
25 41 91 22 102 -6 4 -14 2 -16 -4 -5 -17 -42 -15 -42 2 0 7 -7 19 -15 26 -17
14 -21 35 -5 25 17 -10 79 6 74 19 -3 7 2 18 10 25 17 15 10 41 -11 41 -10 0
-13 8 -10 28 2 15 2 21 0 15 -3 -7 -11 -13 -18 -13 -7 0 -15 -6 -18 -12 -3
-10 -7 -10 -20 0 -9 8 -13 20 -10 29 5 12 2 15 -10 10 -11 -4 -14 -2 -11 8 3
8 3 19 -1 25 -13 22 -35 -40 -30 -84 3 -22 2 -34 -1 -26 -4 8 -14 24 -23 34
-12 14 -13 20 -3 23 6 3 12 13 12 24 0 13 -5 17 -16 12 -9 -3 -20 0 -24 7 -7
11 -12 10 -25 -3 -23 -24 -36 -21 -64 14 -30 38 -20 48 47 51 42 3 52 6 52 21
0 11 -6 17 -16 15 -29 -5 -39 25 -20 63 15 31 15 35 1 45 -14 10 -14 15 -3 33
7 12 16 21 19 21 11 0 19 -29 19 -66 0 -22 5 -34 14 -34 7 0 21 -11 29 -24 13
-20 14 -26 3 -35 -7 -6 -16 -7 -21 -3 -4 4 -1 -3 6 -15 19 -32 27 -29 35 12 5
26 2 41 -10 54 -9 10 -16 23 -16 29 0 7 -4 12 -10 12 -5 0 -10 9 -10 19 0 22
-31 81 -42 81 -4 0 -5 7 -2 15 4 8 1 15 -5 15 -6 0 -11 7 -11 15 0 8 -5 15
-11 15 -6 0 -8 -9 -4 -20 3 -11 2 -20 -4 -20 -14 0 -29 -58 -27 -108 1 -24 -2
-46 -6 -48 -5 -3 -8 -19 -8 -35 0 -18 -9 -39 -25 -54 -25 -26 -45 -32 -45 -15
0 17 5 25 13 22 4 -1 7 5 7 13 0 8 -9 15 -20 15 -12 0 -20 -7 -20 -17 0 -23
-8 -13 -13 17 -3 14 -10 37 -17 52 -16 34 -6 75 20 83 32 10 24 27 -10 20 -51
-11 -110 -13 -110 -2 0 5 -7 4 -15 -3 -12 -10 -21 -10 -41 -1 -14 6 -30 9 -35
6 -5 -4 -9 0 -9 8 0 19 -88 49 -98 33 -4 -6 -15 -17 -25 -25 -15 -12 -17 -12
-12 1 5 13 -1 14 -42 7 -44 -9 -50 -7 -68 14 -32 36 -51 48 -69 41 -24 -9 -20
-33 4 -27 15 4 20 0 20 -15 0 -12 5 -24 10 -27 6 -3 10 -19 10 -34 0 -27 -5
-31 -82 -69 -3 -2 -8 7 -10 20 -2 12 -14 28 -27 34 -13 7 -26 16 -30 22 -13
19 -74 43 -97 38 -20 -5 -23 -12 -21 -45 l2 -39 -47 2 c-56 1 -70 -10 -71 -57
-1 -30 -4 -36 -21 -34 -13 1 -22 -5 -24 -18 -2 -11 -10 -24 -18 -28 -24 -14
-15 -24 17 -19 22 3 30 1 25 -7 -5 -7 4 -11 28 -11 19 0 38 5 41 10 11 17 44
11 55 -10 13 -24 48 -26 57 -4 4 12 -4 26 -27 44 -26 22 -32 32 -28 54 4 21 2
26 -11 22 -10 -3 -24 5 -35 21 l-19 26 43 -7 c30 -5 46 -3 51 6 6 9 13 8 28
-6 23 -21 28 -41 8 -33 -8 3 -14 -4 -15 -20 -1 -18 2 -24 12 -20 8 3 18 -5 25
-19 6 -13 15 -24 21 -24 14 0 13 13 -2 28 -8 8 -9 12 -1 12 6 0 13 -6 16 -12
3 -10 8 -10 21 1 16 13 15 16 -11 37 -15 13 -22 23 -15 24 16 0 83 -42 101
-64 14 -17 36 -12 25 6 -4 7 -2 8 4 4 7 -4 12 -14 12 -22 0 -24 20 -16 31 13
l10 26 31 -32 c21 -21 37 -30 49 -26 24 8 25 -11 2 -24 -10 -5 -15 -13 -11
-16 4 -4 14 0 23 9 9 9 32 16 50 16 19 0 37 5 40 10 3 6 -3 10 -13 10 -12 0
-23 9 -27 23 -6 19 -8 19 -12 5 -6 -22 -22 -23 -29 -3 -4 8 -11 15 -18 15 -11
0 -33 22 -50 49 -7 10 -4 11 11 2 11 -5 35 -13 53 -16 18 -3 48 -12 67 -20 19
-8 40 -14 46 -12 7 1 10 -10 8 -30 -1 -19 2 -33 8 -33 6 0 11 -7 11 -15 0 -19
57 -55 88 -55 15 0 26 -8 32 -25 10 -25 4 -55 -10 -55 -4 0 -10 -10 -14 -22
-6 -24 21 -57 57 -71 9 -3 17 -11 17 -17 0 -14 -13 -13 -35 4 -12 9 -32 12
-52 9 -26 -4 -33 -2 -33 11 0 9 -4 16 -10 16 -5 0 -7 6 -4 14 3 8 -4 16 -20
20 -14 3 -26 11 -26 17 0 6 -6 5 -15 -3 -43 -39 -61 -44 -82 -26 -14 11 -15
10 -9 -10 8 -24 -7 -31 -21 -9 -4 6 -17 19 -27 27 -18 14 -19 14 -6 -10 7 -14
18 -29 24 -33 6 -5 -2 -5 -19 -2 -16 4 -34 7 -40 7 -46 -1 -157 -12 -178 -17
-27 -7 -46 -37 -27 -43 7 -3 1 -10 -12 -16 -15 -8 -25 -9 -30 -2 -8 12 -38
-11 -38 -31 0 -7 -7 -16 -15 -19 -8 -4 -15 -10 -15 -15 0 -4 -11 -19 -25 -33
l-25 -25 0 28 c0 18 7 31 17 35 12 5 14 9 5 18 -16 16 -15 28 1 28 8 0 22 9
32 20 23 26 11 25 -32 -1 -29 -18 -36 -19 -50 -7 -13 10 -17 10 -20 1 -4 -10
-10 -10 -25 -2 -36 20 -31 0 6 -22 36 -21 37 -23 34 -73 l-3 -51 -44 2 c-24 1
-47 7 -50 12 -7 11 -51 4 -51 -8 0 -10 51 -28 97 -35 40 -6 78 5 94 28 4 4 9
4 12 -1 8 -13 -15 -38 -51 -52 -30 -13 -32 -15 -17 -31 11 -12 13 -20 6 -25
-6 -3 -11 -26 -11 -51 0 -56 -16 -58 -23 -2 -4 32 -2 45 11 54 9 7 14 16 10
20 -5 4 -16 0 -25 -9 -19 -17 -50 -8 -66 20 -4 7 -13 13 -19 13 -6 0 -3 -9 7
-20 16 -18 16 -20 1 -35 -9 -9 -16 -22 -16 -28 0 -8 -4 -7 -9 2 -5 8 -16 11
-24 8 -20 -7 -11 33 11 50 9 7 12 16 7 20 -4 5 -10 2 -12 -4 -3 -7 -14 -13
-25 -13 -18 0 -19 -2 -7 -16 11 -14 11 -18 -4 -29 -10 -7 -16 -17 -15 -21 2
-5 1 -9 -2 -9 -3 0 -21 -10 -41 -23 -20 -12 -46 -22 -58 -22 -18 0 -20 -4 -15
-27 6 -27 6 -27 -9 -8 -8 12 -14 34 -12 50 2 17 9 77 15 135 6 58 13 112 16
120 4 8 8 33 10 54 l4 39 -22 -29 c-12 -16 -26 -32 -31 -35 -5 -4 -4 -15 2
-27 9 -16 8 -23 -2 -29 -15 -9 -37 -45 -37 -62 0 -5 6 -16 14 -23 7 -8 16 -24
20 -35 6 -18 1 -25 -22 -37 -31 -16 -56 -42 -58 -60 0 -6 -2 -17 -2 -25 -1 -7
-8 -11 -17 -8 -8 4 -17 2 -20 -3 -3 -5 -20 -13 -37 -18 -34 -9 -45 -34 -22
-53 20 -16 19 -53 -2 -45 -9 3 -18 6 -20 6 -3 0 -9 11 -14 25 -10 27 -30 34
-30 10 0 -9 -6 -12 -15 -9 -18 7 -20 -7 -3 -24 6 -6 8 -15 4 -19 -4 -4 -18 6
-31 22 -13 17 -32 38 -41 47 -24 25 -11 50 20 39 13 -6 26 -8 29 -5 2 2 10 -2
17 -11 18 -22 32 -18 18 5 -8 12 -24 20 -41 20 -18 0 -30 6 -33 18 -9 29 -20
46 -32 50 -7 2 -10 -2 -7 -11 8 -20 -21 -40 -48 -33 -22 5 -24 3 -19 -22 l5
-27 -19 22 c-21 23 -64 40 -64 25 0 -6 7 -13 16 -16 8 -3 12 -11 9 -16 -4 -7
-16 -1 -30 15 -14 14 -35 25 -49 25 -14 0 -31 9 -40 22 -21 30 -26 21 -16 -30
6 -36 5 -44 -9 -49 -9 -2 -24 -9 -34 -14 -20 -11 -57 -3 -57 12 0 5 -7 9 -15
9 -8 0 -15 -6 -15 -14 0 -7 -11 -16 -25 -18 -21 -5 -25 -2 -20 13 4 13 1 19
-9 19 -8 0 -18 -9 -21 -20 -5 -16 -10 -18 -26 -10 -12 7 -19 7 -19 1 0 -6 -14
-14 -32 -19 -17 -4 -34 -14 -36 -22 -3 -9 1 -11 12 -7 10 4 15 3 11 -3 -3 -6
-13 -10 -21 -10 -8 0 -12 -5 -8 -11 3 -6 14 -9 24 -6 13 3 16 0 13 -12 -5 -21
22 -47 32 -31 3 5 11 10 17 10 6 0 5 -7 -3 -16 -12 -15 -11 -16 6 -11 19 6 20
2 20 -71 0 -54 -5 -84 -16 -99 -9 -13 -19 -20 -22 -16 -4 3 -7 1 -7 -5 0 -16
11 -15 35 4 24 18 48 113 33 131 -7 9 -5 17 5 28 14 13 18 12 41 -18 20 -25
26 -28 26 -13 0 17 1 17 25 2 14 -9 25 -14 25 -10 0 3 11 -1 25 -10 21 -14 25
-14 25 -2 0 8 -6 16 -12 19 -8 3 -6 8 7 13 11 4 23 12 27 18 5 7 8 4 8 -6 0
-10 -5 -18 -10 -18 -6 0 -5 -8 2 -20 17 -27 25 -25 32 6 8 31 -14 86 -31 79
-7 -2 -13 2 -13 10 0 8 2 15 5 15 14 0 65 -40 114 -89 37 -37 56 -50 59 -41 3
8 0 16 -6 18 -14 4 -6 47 16 79 8 13 12 30 8 38 -3 9 0 15 9 15 18 0 20 -37 3
-42 -13 -5 -2 -28 12 -28 5 0 12 11 16 25 3 14 13 25 21 25 8 0 11 -5 8 -10
-3 -6 1 -13 9 -16 9 -3 16 -14 16 -24 0 -11 5 -22 11 -26 8 -5 10 3 7 25 -5
34 -2 37 26 16 10 -8 15 -19 11 -26 -8 -11 4 -10 65 6 9 2 26 -12 42 -35 28
-40 68 -54 83 -30 4 6 12 4 22 -6 14 -13 14 -17 2 -24 -7 -5 -10 -12 -6 -17
21 -21 33 84 13 116 -14 22 3 25 26 5 12 -10 18 -13 14 -6 -4 6 -3 12 3 12 6
0 8 -14 5 -32 -3 -18 -6 -38 -6 -45 -1 -7 -5 -10 -10 -7 -4 3 -8 1 -8 -5 0 -5
5 -13 11 -16 6 -4 8 -14 5 -22 -4 -9 -2 -21 3 -27 34 -41 43 -194 12 -204 -9
-3 -11 0 -6 8 6 10 4 12 -9 7 -13 -5 -24 1 -38 18 -25 32 -38 31 -69 -1 l-23
-25 -58 62 c-32 34 -58 67 -58 74 0 25 -25 36 -46 20 -18 -14 -16 -18 49 -81
37 -37 67 -68 67 -70 0 -2 -8 -1 -17 3 -16 6 -15 4 2 -16 16 -19 26 -22 57
-17 34 6 37 4 43 -24 4 -16 17 -38 30 -48 12 -10 26 -33 30 -52 l7 -35 -21 19
c-11 11 -21 25 -21 31 0 14 -47 25 -125 30 -47 2 -51 5 -72 45 -13 24 -23 37
-23 30 0 -9 -3 -10 -13 -1 -8 6 -17 8 -20 5 -9 -9 23 -54 39 -54 8 0 14 -4 14
-10 0 -9 -29 -15 -59 -11 -7 2 -10 -2 -6 -8 3 -6 -1 -11 -10 -11 -8 0 -18 7
-21 15 -4 8 -10 13 -14 10 -14 -8 -23 15 -11 28 5 7 6 19 1 26 -6 11 -12 10
-27 -5 -10 -11 -25 -32 -33 -48 -8 -16 -27 -34 -42 -40 -30 -11 -35 -21 -17
-31 5 -4 18 0 28 9 15 14 20 14 29 3 15 -17 6 -27 -25 -27 -14 0 -23 -6 -23
-15 0 -9 -9 -15 -24 -15 -13 0 -26 -7 -30 -15 -4 -13 -9 -13 -25 -3 -11 7 -18
15 -15 19 2 4 0 10 -6 14 -5 3 -10 1 -10 -4 0 -6 -4 -11 -10 -11 -5 0 -10 6
-10 13 0 7 -17 13 -45 14 -24 1 -49 4 -54 8 -6 3 -9 28 -7 55 4 56 -6 64 -27
23 -7 -16 -19 -27 -26 -25 -6 1 -21 -3 -33 -9 -16 -8 -22 -8 -29 2 -4 7 -11
10 -16 6 -4 -4 -2 -17 5 -27 10 -17 10 -20 -3 -20 -21 0 -29 45 -15 80 7 17
16 30 20 30 10 0 24 90 15 98 -3 4 -10 1 -14 -6 -8 -13 -41 -6 -41 9 0 5 3 8
8 7 4 -2 8 2 9 7 1 6 -5 9 -13 9 -7 -1 -24 16 -36 37 -13 23 -27 38 -35 35 -7
-3 -13 -1 -13 4 0 15 -38 50 -65 60 -24 9 -51 73 -39 92 7 11 -24 80 -40 90
-6 4 -16 -5 -22 -20 -13 -30 -13 -30 -18 53 -7 137 -9 158 -13 143 -4 -18 -23
-25 -23 -10 0 5 12 37 26 73 47 118 66 180 60 194 -3 8 2 40 10 72 10 37 15
95 14 158 -3 136 -3 139 20 165 27 31 27 80 0 80 -12 0 -17 5 -14 14 3 8 -3
16 -15 19 -14 3 -21 13 -21 29 0 12 -4 30 -10 38 -5 8 -5 19 0 25 15 18 -17
91 -60 135 -22 22 -40 45 -40 49 0 10 -65 61 -78 61 -5 0 -17 9 -28 21 -10 12
-32 28 -49 36 -16 9 -50 34 -75 57 -26 22 -68 59 -94 81 -26 22 -60 59 -75 82
-28 44 -119 144 -167 181 -30 24 -118 68 -165 82 -18 5 -39 2 -65 -9z m-51
-226 c-3 -9 -8 -14 -10 -11 -3 3 -2 9 2 15 9 16 15 13 8 -4z m49 -52 c19 5 20
4 6 -9 -13 -13 -19 -14 -37 -2 -11 7 -21 17 -21 22 0 4 7 3 15 -4 8 -7 25 -10
37 -7z m-57 -63 c3 -5 1 -10 -4 -10 -6 0 -11 5 -11 10 0 6 2 10 4 10 3 0 8 -4
11 -10z m570 -60 c3 -5 1 -10 -4 -10 -6 0 -11 5 -11 10 0 6 2 10 4 10 3 0 8
-4 11 -10z m-25 -71 c0 -6 -4 -7 -10 -4 -5 3 -10 11 -10 16 0 6 5 7 10 4 6 -3
10 -11 10 -16z m-430 7 c0 -2 -7 -7 -16 -10 -8 -3 -12 -2 -9 4 6 10 25 14 25
6z m35 -6 c3 -6 -1 -7 -9 -4 -18 7 -21 14 -7 14 6 0 13 -4 16 -10z m145 -10
c0 -5 -2 -10 -4 -10 -3 0 -8 5 -11 10 -3 6 -1 10 4 10 6 0 11 -4 11 -10z
m-165 -30 c3 -5 1 -10 -4 -10 -6 0 -11 5 -11 10 0 6 2 10 4 10 3 0 8 -4 11
-10z m300 -20 c3 -5 2 -10 -4 -10 -5 0 -13 5 -16 10 -3 6 -2 10 4 10 5 0 13
-4 16 -10z m125 -35 c10 -12 10 -15 -4 -15 -9 0 -16 7 -16 15 0 8 2 15 4 15 2
0 9 -7 16 -15z m-553 -37 c-3 -8 -6 -5 -6 6 -1 11 2 17 5 13 3 -3 4 -12 1 -19z
m390 -13 c8 -22 -6 -33 -17 -15 -13 20 -12 30 0 30 6 0 13 -7 17 -15z m-330
-42 c-3 -10 -5 -4 -5 12 0 17 2 24 5 18 2 -7 2 -21 0 -30z m93 17 c0 -5 -2
-10 -4 -10 -3 0 -8 5 -11 10 -3 6 -1 10 4 10 6 0 11 -4 11 -10z m2 -72 c-9 -9
-12 -7 -12 12 0 19 3 21 12 12 9 -9 9 -15 0 -24z m138 -34 c0 -8 -4 -14 -8
-14 -4 0 -8 9 -8 19 0 11 4 17 8 15 4 -3 8 -12 8 -20z m125 6 c3 -5 2 -10 -4
-10 -5 0 -13 5 -16 10 -3 6 -2 10 4 10 5 0 13 -4 16 -10z m-256 -54 c-2 -2
-15 -9 -29 -15 -24 -11 -24 -11 -6 3 16 13 49 24 35 12z m41 -191 c-7 -8 -13
-32 -13 -54 -1 -21 -6 -37 -11 -34 -4 3 -5 23 -2 45 7 42 29 85 34 68 2 -6 -1
-17 -8 -25z m-125 -65 c3 -6 -1 -7 -9 -4 -18 7 -21 14 -7 14 6 0 13 -4 16 -10z
m40 0 c3 -5 1 -10 -4 -10 -6 0 -11 5 -11 10 0 6 2 10 4 10 3 0 8 -4 11 -10z
m-530 -60 c3 -5 2 -10 -4 -10 -5 0 -13 5 -16 10 -3 6 -2 10 4 10 5 0 13 -4 16
-10z m-45 -40 c0 -5 -4 -10 -10 -10 -5 0 -10 5 -10 10 0 6 5 10 10 10 6 0 10
-4 10 -10z m65 -30 c-3 -5 -12 -7 -20 -3 -21 7 -19 13 6 13 11 0 18 -4 14 -10z
m-181 -6 c20 -8 21 -24 2 -24 -8 0 -16 7 -20 15 -6 17 -4 18 18 9z m3276 -44
c-8 -5 -19 -10 -25 -10 -5 0 -3 5 5 10 8 5 20 10 25 10 6 0 3 -5 -5 -10z m200
0 c8 -5 11 -10 5 -10 -5 0 -17 5 -25 10 -8 5 -10 10 -5 10 6 0 17 -5 25 -10z
m-3530 -15 c-7 -8 -18 -15 -24 -15 -6 0 -2 7 8 15 25 19 32 19 16 0z m4073
-30 c-5 -21 -7 -22 -20 -10 -16 16 -10 35 11 35 9 0 12 -9 9 -25z m83 17 c15
-10 24 -51 13 -58 -5 -3 -9 2 -9 10 0 8 -9 20 -20 26 -11 6 -20 15 -20 20 0
12 20 13 36 2z m-836 -32 c0 -5 -7 -7 -15 -4 -8 4 -15 8 -15 10 0 2 7 4 15 4
8 0 15 -4 15 -10z m715 -10 c3 -5 1 -10 -4 -10 -6 0 -11 5 -11 10 0 6 2 10 4
10 3 0 8 -4 11 -10z m110 -20 c-4 -11 -2 -20 4 -20 6 0 11 -7 11 -15 0 -23
-16 -18 -28 10 -6 14 -16 25 -22 25 -5 0 -10 5 -10 10 0 6 12 10 26 10 21 0
24 -4 19 -20z m-47 -2 c12 -12 16 -50 7 -60 -3 -3 -16 -3 -30 -1 -26 5 -32 43
-7 43 8 0 12 6 8 15 -7 18 5 20 22 3z m-764 -23 c3 -8 1 -15 -4 -15 -6 0 -10
7 -10 15 0 8 2 15 4 15 2 0 6 -7 10 -15z m563 -5 c23 -27 42 -26 37 3 -4 21
-4 20 6 -2 8 -18 7 -26 -2 -33 -21 -13 -32 -9 -56 23 -26 32 -12 41 15 9z
m-657 0 c0 -5 -2 -10 -4 -10 -3 0 -8 5 -11 10 -3 6 -1 10 4 10 6 0 11 -4 11
-10z m-2180 -10 c0 -5 -2 -10 -4 -10 -3 0 -8 5 -11 10 -3 6 -1 10 4 10 6 0 11
-4 11 -10z m2967 -22 c-3 -8 -6 -5 -6 6 -1 11 2 17 5 13 3 -3 4 -12 1 -19z
m-3757 -15 c25 -8 52 -16 60 -17 18 -2 130 -68 130 -77 0 -3 -35 12 -77 33
-43 22 -85 37 -95 35 -10 -3 -18 -2 -18 2 0 15 -45 28 -87 26 -24 -1 -43 2
-43 6 0 10 50 18 70 11 8 -2 35 -11 60 -19z m3613 -44 c4 -16 3 -18 -9 -8 -7
6 -11 15 -8 20 8 13 11 11 17 -12z m-3943 -20 c0 -6 -7 -6 -20 1 -11 6 -20 15
-20 21 0 6 7 6 20 -1 11 -6 20 -15 20 -21z m4039 -62 c5 -281 4 -291 -18 -352
-29 -79 -41 -91 -64 -65 -9 11 -12 20 -6 20 5 0 7 5 4 10 -3 6 -19 10 -36 10
-23 0 -29 -4 -29 -21 0 -11 -4 -17 -10 -14 -5 3 -10 -2 -10 -12 -1 -11 -15
-25 -36 -34 -32 -16 -35 -16 -32 0 1 9 -1 22 -5 29 -5 7 -3 12 3 12 18 0 7 44
-11 48 -12 2 -19 -8 -26 -35 -6 -22 -15 -37 -22 -35 -7 1 -10 -2 -7 -7 4 -5 1
-11 -6 -13 -7 -3 -12 -17 -13 -33 0 -20 -6 -29 -19 -31 -10 -1 -24 -8 -30 -15
-8 -9 -5 -10 16 -7 21 4 29 0 34 -14 3 -11 12 -17 20 -14 8 3 14 1 14 -4 0
-13 -27 -13 -35 0 -9 15 -43 12 -52 -3 -4 -8 -21 -20 -37 -28 -46 -22 -44 -39
3 -39 30 0 41 -4 41 -15 0 -8 -8 -15 -17 -16 -14 0 -13 -2 5 -9 30 -12 28 -30
-3 -30 -14 0 -25 5 -25 11 0 14 -28 41 -37 36 -5 -3 -17 -1 -28 4 -17 6 -17 8
-2 8 19 1 20 3 11 25 -5 14 -54 24 -54 11 0 -11 26 -50 38 -58 22 -14 13 -25
-20 -23 -30 1 -33 -2 -36 -29 -4 -38 -18 -53 -34 -37 -7 7 -18 12 -26 12 -11
0 -12 -3 -3 -14 10 -12 8 -13 -8 -9 -12 3 -21 13 -21 23 0 10 -10 21 -22 25
-15 4 -18 8 -10 12 7 3 19 -1 27 -7 12 -10 17 -7 25 15 13 33 13 45 0 45 -5 0
-10 -9 -10 -20 0 -11 -4 -20 -8 -20 -11 0 -40 32 -42 45 -1 6 -13 23 -27 39
-20 23 -28 45 -34 100 -4 39 -10 83 -12 98 -2 15 0 25 4 22 5 -3 9 0 9 5 0 6
7 11 15 11 8 0 15 -4 15 -10 0 -5 6 -7 13 -5 6 3 19 0 27 -5 12 -8 12 -12 2
-18 -9 -6 -10 -16 -2 -39 6 -16 10 -34 9 -39 -1 -5 3 -21 9 -36 9 -21 17 -27
42 -26 16 1 30 2 30 3 0 2 -6 15 -14 30 -8 15 -12 34 -9 41 3 8 0 21 -6 28 -7
8 -11 20 -10 28 3 23 -1 38 -8 37 -22 -4 -33 4 -47 33 -20 38 -20 39 -1 32 8
-4 21 -1 29 5 14 12 26 5 26 -15 0 -7 -8 -10 -20 -7 -25 7 -26 -8 -1 -24 17
-10 20 -9 26 14 3 14 9 23 12 19 3 -3 13 0 21 7 13 9 14 9 8 0 -9 -17 2 -17
18 0 7 7 11 18 8 25 -2 6 3 12 12 12 10 0 13 -6 10 -15 -10 -24 20 -17 31 8 6
12 13 20 16 17 3 -3 13 1 21 8 13 10 17 10 21 0 4 -10 9 -9 20 5 8 9 20 17 27
17 8 0 11 11 8 32 l-5 32 23 -30 c13 -16 24 -32 24 -36 0 -5 5 -8 10 -8 6 0
10 11 10 24 0 14 -4 28 -10 31 -20 12 -10 34 18 38 26 4 26 4 5 12 -13 4 -23
11 -23 16 0 9 36 -8 72 -33 20 -15 37 -3 20 14 -21 21 -13 29 12 11 14 -11 21
-22 16 -28 -5 -6 9 -27 35 -53 36 -35 42 -38 39 -19 -2 12 -2 16 2 9 3 -6 10
-10 15 -6 5 3 9 -2 9 -10 0 -10 6 -13 15 -10 8 4 22 1 30 -6 12 -10 16 -9 21
4 8 21 -2 31 -29 31 -18 0 -22 6 -22 40 -1 49 -13 85 -27 85 -5 0 -7 7 -4 16
3 8 -4 29 -16 45 -19 26 -20 31 -8 39 20 13 30 12 30 0 0 -15 26 -12 40 5 10
12 10 19 2 27 -21 21 -12 29 14 12 24 -16 25 -16 31 4 8 34 21 16 22 -31z
m151 33 c0 -5 -4 -10 -10 -10 -5 0 -10 5 -10 10 0 6 5 10 10 10 6 0 10 -4 10
-10z m-3640 -10 c0 -5 -2 -10 -4 -10 -3 0 -8 5 -11 10 -3 6 -1 10 4 10 6 0 11
-4 11 -10z m3320 -45 c0 -17 -2 -18 -25 -9 -13 5 -14 8 -3 15 19 13 28 11 28
-6z m-1090 -24 c0 -12 -29 -35 -36 -28 -7 6 17 36 29 37 4 0 7 -4 7 -9z m1060
-6 c20 -24 6 -28 -15 -5 -10 11 -13 20 -8 20 6 0 16 -7 23 -15z m-53 -11 c-3
-3 -12 -4 -19 -1 -8 3 -5 6 6 6 11 1 17 -2 13 -5z m-3907 -14 c0 -5 -2 -10 -4
-10 -3 0 -8 5 -11 10 -3 6 -1 10 4 10 6 0 11 -4 11 -10z m3936 -24 c9 -25 35
-27 54 -6 18 20 18 20 34 -5 18 -28 21 -39 6 -30 -14 9 -12 -5 5 -39 15 -27
12 -52 -3 -31 -4 6 -14 10 -22 10 -8 0 -18 14 -23 31 -7 24 -17 33 -37 37 -16
4 -30 14 -33 26 -6 23 11 29 19 7z m-939 -83 c-5 -7 -13 -13 -18 -13 -5 0 -19
-10 -30 -21 -17 -17 -19 -23 -8 -30 10 -6 7 -9 -11 -9 -14 0 -40 9 -58 20 -41
25 -76 19 -66 -12 5 -17 3 -20 -11 -15 -9 4 -23 7 -31 7 -22 0 -17 28 9 44 12
8 38 14 58 12 44 -4 119 28 126 54 4 16 6 16 27 -4 15 -14 19 -25 13 -33z
m-1297 32 c0 -8 -4 -15 -10 -15 -5 0 -7 7 -4 15 4 8 8 15 10 15 2 0 4 -7 4
-15z m656 -13 c-4 -3 -14 2 -24 12 -16 18 -16 18 6 6 13 -6 21 -14 18 -18z
m-2206 14 c0 -3 -4 -8 -10 -11 -5 -3 -10 -1 -10 4 0 6 5 11 10 11 6 0 10 -2
10 -4z m1040 -55 c17 -5 24 -13 22 -27 -2 -14 -1 -16 6 -5 13 18 34 4 27 -18
-3 -12 4 -20 25 -28 21 -8 28 -16 24 -27 -5 -13 0 -15 30 -12 30 4 36 2 36
-13 0 -23 -25 -45 -43 -38 -15 5 -40 -19 -45 -44 -8 -32 -35 -79 -46 -79 -7 0
-35 -25 -63 -55 -29 -30 -56 -55 -62 -55 -5 0 -20 -17 -32 -37 -13 -20 -25
-31 -27 -24 -2 6 4 23 13 37 19 30 6 56 -18 36 -17 -14 -46 16 -77 80 -22 46
-36 128 -21 128 7 0 8 33 2 72 -1 4 -9 5 -18 1 -17 -6 -17 -5 -1 14 10 11 19
32 20 46 1 15 3 27 5 27 1 0 14 -5 28 -10 24 -9 26 -8 20 12 -5 17 -4 19 4 9
8 -12 15 -13 35 -3 21 9 24 9 19 -3 -3 -8 -1 -15 5 -15 5 0 12 6 15 14 9 22
69 30 117 17z m1884 -27 c9 -3 13 -11 10 -16 -4 -6 -10 -5 -15 3 -7 11 -13 9
-28 -11 -11 -14 -23 -21 -28 -17 -4 5 3 17 17 27 29 23 25 21 44 14z m-657
-23 c12 11 14 10 13 -2 -5 -30 0 -41 15 -35 21 8 19 0 -6 -23 l-22 -20 -18 34
c-21 38 -28 86 -8 52 9 -15 13 -16 26 -6z m-207 -26 c-6 -8 -8 -20 -4 -26 4
-8 3 -9 -4 -5 -16 10 -15 33 1 39 19 8 20 8 7 -8z m870 0 c0 -8 -4 -15 -9 -15
-13 0 -22 16 -14 24 11 11 23 6 23 -9z m-914 -51 c-3 -8 -10 -14 -16 -14 -6 0
-9 4 -6 9 4 5 0 11 -6 14 -9 3 -7 9 7 20 18 14 20 14 23 1 2 -8 1 -22 -2 -30z
m44 -27 c0 -5 -4 -5 -10 -2 -5 3 -10 14 -10 23 0 15 2 15 10 2 5 -8 10 -19 10
-23z m943 -64 c4 -18 2 -35 -3 -38 -6 -3 -10 -3 -11 2 -10 101 -2 122 14 36z
m162 57 c3 -5 1 -10 -4 -10 -6 0 -11 5 -11 10 0 6 2 10 4 10 3 0 8 -4 11 -10z
m-382 -47 c14 -31 14 -32 -2 -24 -9 5 -18 22 -19 37 -2 32 -1 31 21 -13z m318
20 c13 -16 12 -17 -3 -4 -17 13 -22 21 -14 21 2 0 10 -8 17 -17z m798 -32 c19
-12 5 -30 -18 -24 -12 3 -17 11 -14 19 6 16 13 17 32 5z m-807 -68 c-14 -14
-28 -20 -40 -16 -15 6 -16 5 -2 -13 39 -50 50 -51 50 -2 0 15 5 28 10 28 6 0
10 -4 10 -10 0 -5 5 -10 10 -10 6 0 10 7 10 16 0 10 6 14 15 11 11 -5 13 0 8
23 -3 18 -1 30 5 30 12 0 24 -33 28 -79 4 -36 14 -53 21 -34 3 10 9 10 24 0
20 -12 26 -43 9 -49 -5 -1 9 -23 31 -48 28 -31 39 -51 35 -64 -3 -11 2 -28 11
-38 13 -15 14 -23 5 -43 -6 -14 -18 -25 -27 -25 -8 0 -15 -8 -15 -18 0 -39
-50 -57 -69 -25 -10 20 -26 12 -19 -9 11 -27 7 -33 -17 -34 -14 -1 -23 1 -20
4 3 3 -2 14 -11 24 -14 14 -14 20 -4 33 7 8 22 15 34 15 17 0 18 2 6 10 -9 6
-18 6 -24 0 -6 -6 -25 -10 -44 -10 -18 0 -40 -7 -48 -15 -14 -13 -13 -15 5
-15 12 0 21 -4 21 -10 0 -5 -7 -10 -15 -10 -22 0 -18 -17 5 -23 11 -3 20 -10
20 -16 0 -8 -6 -9 -19 -1 -27 14 -61 12 -93 -4 -24 -13 -28 -13 -28 0 0 8 -5
14 -11 14 -5 0 -7 -4 -4 -10 3 -5 2 -10 -4 -10 -5 0 -9 -12 -8 -26 2 -23 -2
-27 -28 -29 -16 -1 -36 3 -43 8 -7 6 -26 11 -42 12 -27 2 -28 1 -13 -14 9 -8
23 -16 31 -16 9 0 16 -11 18 -27 1 -16 -2 -28 -7 -28 -5 0 -9 -7 -9 -15 0 -22
-33 -18 -65 6 -21 17 -26 28 -21 49 7 37 -24 70 -67 71 -18 0 -41 4 -52 8 -15
6 -10 9 25 13 25 2 47 1 48 -4 7 -17 23 -7 17 11 -5 17 0 21 40 26 25 4 45 11
45 15 0 4 -6 8 -12 7 -34 -1 -48 4 -48 19 0 17 26 16 88 -2 12 -3 22 -2 22 4
0 5 -13 12 -30 16 -42 8 -37 20 12 37 46 15 99 16 164 4 28 -5 49 -3 65 6 13
7 33 14 44 16 11 2 24 8 30 14 7 8 4 9 -12 5 -12 -4 -59 -7 -105 -6 -46 0 -93
1 -106 1 -13 -1 -21 3 -18 8 6 9 -40 25 -52 17 -4 -2 -8 7 -9 21 -1 20 6 28
28 36 27 11 29 15 30 67 0 30 3 49 6 43 2 -7 12 -13 21 -13 23 0 41 -41 28
-63 -6 -9 -8 -19 -5 -22 12 -11 37 7 49 36 7 16 19 29 26 29 8 0 14 5 14 10 0
6 -3 10 -8 10 -4 0 -13 9 -20 21 -11 18 -11 24 3 39 9 10 14 24 10 29 -9 16
21 42 39 35 10 -4 16 -1 16 7 0 8 6 3 13 -10 11 -22 9 -28 -11 -48z m788 6 c0
-10 -27 -19 -34 -12 -11 12 -6 19 14 19 11 0 20 -3 20 -7z m-3160 -3 c0 -2
-11 -6 -25 -8 -13 -3 -22 -1 -19 3 5 9 44 13 44 5z m2235 -55 c-19 -19 -32 -6
-15 14 8 10 9 15 1 15 -6 0 -11 8 -11 18 0 14 4 12 20 -8 16 -22 17 -27 5 -39z
m780 19 c4 0 14 8 21 17 7 10 15 15 18 12 10 -9 -29 -48 -45 -46 -26 4 -38 17
-32 34 6 14 7 14 18 -1 7 -9 16 -16 20 -16z m224 2 c-7 -12 -21 -23 -31 -25
-10 -3 -18 -12 -18 -21 0 -20 -16 -21 -24 -1 -6 16 18 45 38 45 8 0 19 7 26
15 18 21 24 11 9 -13z m-959 -37 c0 -5 -5 -3 -10 5 -5 8 -10 20 -10 25 0 6 5
3 10 -5 5 -8 10 -19 10 -25z m-2216 -49 c-3 -15 -8 -25 -11 -23 -2 3 -1 17 3
31 3 15 8 25 11 23 2 -3 1 -17 -3 -31z m283 15 c0 -11 -5 -18 -9 -15 -4 3 -5
11 -1 19 7 21 12 19 10 -4z m2780 4 c3 -9 2 -19 -2 -23 -4 -4 -10 -1 -12 6 -3
6 -9 10 -14 6 -10 -6 -12 9 -2 19 11 11 23 8 30 -8z m-67 -19 c0 -11 -19 -15
-25 -6 -3 5 1 10 9 10 9 0 16 -2 16 -4z m-2733 -27 c-9 -5 -13 -17 -10 -28 3
-10 0 -21 -5 -25 -5 -3 -12 5 -14 19 -3 14 -1 25 3 25 5 0 9 7 9 15 0 9 6 12
16 8 14 -5 14 -7 1 -14z m2688 11 c-3 -5 -10 -10 -16 -10 -5 0 -9 5 -9 10 0 6
7 10 16 10 8 0 12 -4 9 -10z m155 -10 c-1 -17 -42 -51 -55 -46 -23 9 -18 25 7
18 17 -4 20 -2 16 14 -4 14 0 20 13 20 11 0 19 -3 19 -6z m-2735 -20 c-3 -5
-10 -10 -16 -10 -5 0 -9 5 -9 10 0 6 7 10 16 10 8 0 12 -4 9 -10z m-45 -32 c8
2 6 -2 -5 -11 -18 -14 -22 -14 -37 0 -9 8 -14 22 -11 30 5 14 9 13 22 -4 9
-11 23 -18 31 -15z m1590 11 c7 -11 9 -23 6 -26 -8 -9 -36 17 -36 33 0 21 18
17 30 -7z m-1700 -3 c0 -3 -4 -8 -10 -11 -5 -3 -10 -1 -10 4 0 6 5 11 10 11 6
0 10 -2 10 -4z m146 -38 c-1 -12 -9 -24 -16 -26 -9 -3 -11 1 -7 12 4 10 7 24
7 32 0 9 4 12 10 9 5 -3 8 -16 6 -27z m2919 -25 c5 -19 2 -23 -15 -23 -22 0
-40 -33 -40 -76 0 -26 -9 -31 -27 -13 -14 14 -33 3 -33 -19 1 -15 2 -15 15 2
11 14 15 16 15 5 0 -17 -26 -34 -81 -53 -58 -20 -79 -10 -42 20 15 13 34 23
41 24 7 0 20 9 30 21 9 11 27 25 40 30 12 5 22 13 22 19 0 6 -4 8 -10 5 -5 -3
-10 1 -10 9 0 10 9 16 23 17 l22 0 -22 11 c-25 12 -29 23 -13 33 6 3 10 1 10
-4 0 -18 25 -12 40 9 16 22 24 17 35 -17z m-3025 -16 c0 -5 -5 -5 -12 -1 -7 5
-9 2 -5 -9 3 -9 0 -18 -9 -21 -11 -4 -13 0 -8 22 10 39 15 46 25 31 5 -8 9
-18 9 -22z m70 13 c14 -26 -15 -76 -35 -60 -10 8 -16 6 -24 -7 -9 -15 -10 -13
-11 15 0 22 5 32 15 32 8 0 15 8 15 18 0 14 2 15 9 2 6 -8 7 -18 4 -24 -3 -5
-1 -6 5 -3 5 4 8 16 5 27 -7 26 3 26 17 0z m-219 -165 c10 4 20 2 20 -4 1 -6
2 -16 3 -21 0 -6 7 -15 15 -19 9 -6 10 -11 2 -15 -6 -4 -11 -2 -11 3 0 6 -9
11 -20 11 -11 0 -20 -7 -20 -16 0 -8 4 -13 9 -9 5 3 12 1 16 -5 3 -5 17 -10
29 -10 25 0 56 -37 59 -71 1 -12 5 -15 11 -9 15 15 46 -19 46 -52 0 -15 6 -38
13 -51 6 -12 12 -23 12 -24 0 -1 17 2 38 6 28 7 37 6 37 -4 0 -17 30 -28 44
-16 15 12 54 -20 48 -39 -3 -8 -11 -21 -19 -28 -7 -7 -14 -21 -15 -30 -2 -32
-4 -37 -11 -49 -4 -6 -3 -14 2 -18 5 -3 14 3 20 12 6 10 11 13 11 7 0 -6 -3
-14 -7 -18 -5 -4 -9 -12 -9 -17 -1 -5 -2 -11 -3 -14 0 -3 -12 2 -26 11 -13 8
-28 13 -33 10 -10 -6 -46 30 -55 56 -3 9 -2 18 4 20 13 4 -19 48 -37 48 -8 0
-14 -5 -14 -11 0 -6 7 -8 16 -5 12 5 15 0 12 -23 -1 -16 2 -35 9 -42 6 -8 14
-24 17 -36 4 -13 12 -23 17 -23 5 0 9 -4 9 -9 0 -5 5 -22 12 -38 6 -15 10 -32
8 -38 -2 -5 -4 -29 -6 -52 -2 -38 1 -43 27 -55 16 -7 29 -18 29 -25 0 -7 10
-10 25 -7 18 3 30 -3 46 -26 13 -16 30 -30 39 -30 9 0 27 -17 40 -38 16 -25
30 -37 40 -35 10 3 21 -6 29 -24 17 -35 23 -83 12 -83 -14 0 -21 29 -10 36 6
3 3 11 -7 18 -10 8 -14 18 -9 26 5 8 3 11 -6 8 -8 -3 -13 -16 -12 -29 3 -23 2
-23 -6 -3 -12 28 -31 40 -31 20 0 -9 -5 -16 -11 -16 -5 0 -8 4 -5 9 3 5 -6 31
-21 57 -34 62 -32 61 -44 44 -8 -12 -9 -10 -4 7 6 22 -16 46 -23 24 -3 -9 -7
-9 -18 0 -10 8 -18 9 -25 2 -11 -11 -2 -43 13 -43 6 0 7 8 3 18 -5 13 -4 14 6
5 10 -10 9 -15 -1 -28 -10 -12 -10 -15 4 -15 9 0 16 -7 16 -15 0 -9 6 -18 14
-21 8 -3 16 -15 19 -26 3 -11 3 -17 0 -14 -3 3 -13 -9 -22 -27 -13 -26 -14
-34 -4 -40 18 -11 6 -28 -14 -20 -11 4 -14 3 -9 -5 4 -7 13 -12 21 -12 7 0 15
-7 19 -15 3 -8 12 -12 20 -9 8 3 12 12 9 20 -4 10 0 12 11 8 21 -8 21 -30 0
-38 -13 -5 -14 -9 -4 -21 17 -20 31 -19 23 3 -6 14 -4 15 8 5 8 -6 23 -35 33
-63 10 -28 29 -58 42 -66 13 -9 20 -22 17 -30 -3 -9 2 -14 17 -14 21 0 22 -4
17 -41 -4 -28 -2 -39 6 -36 7 2 27 -5 45 -15 18 -10 40 -18 50 -19 14 0 14 -2
-3 -9 -19 -8 -14 -11 18 -14 6 -1 15 -5 19 -11 4 -5 12 -11 18 -11 5 -1 14 -2
19 -3 5 0 12 -13 16 -28 5 -22 8 -24 17 -12 8 11 9 11 5 -3 -4 -10 3 -22 18
-32 34 -22 45 -19 16 4 -13 11 -19 20 -15 20 17 0 35 -17 39 -36 2 -10 4 -20
4 -22 1 -1 11 2 22 9 17 8 20 8 17 -2 -2 -7 -14 -14 -27 -16 -25 -4 -111 60
-111 83 0 8 -4 14 -9 14 -10 0 -9 -19 2 -36 4 -7 0 -14 -8 -18 -8 -3 -17 -1
-20 4 -4 6 -2 10 4 10 6 0 8 8 5 18 -3 9 -8 23 -10 31 -4 11 -8 11 -16 3 -8
-8 -15 -7 -24 6 -20 28 -30 3 -12 -29 17 -29 14 -36 -11 -20 -7 5 -11 13 -7
19 3 5 -8 24 -25 40 -30 29 -30 31 -8 26 19 -3 18 -2 -6 10 -36 17 -38 16 -26
-18 6 -14 8 -32 5 -40 -3 -8 -1 -17 5 -21 6 -3 11 -18 11 -32 0 -20 -3 -23
-13 -14 -11 8 -14 5 -14 -17 0 -15 -3 -40 -6 -55 -7 -25 -5 -27 33 -33 27 -4
39 -11 36 -19 -2 -7 7 -18 21 -26 13 -7 31 -25 38 -39 l14 -25 -3 31 c-4 43
-14 56 -39 49 -12 -2 -16 -2 -9 1 16 8 15 29 -3 44 -13 11 -13 14 1 27 8 9 12
18 8 22 -4 3 -9 0 -11 -6 -4 -10 -8 -9 -19 1 -16 17 -19 30 -4 21 15 -10 12 2
-6 20 -20 19 -11 33 10 16 8 -7 19 -10 25 -7 5 3 7 -3 4 -14 -6 -22 12 -28 21
-7 3 6 4 0 1 -15 -4 -23 -2 -26 12 -21 12 5 15 2 10 -10 -4 -10 0 -20 9 -25 8
-5 16 -18 17 -29 0 -12 5 -19 10 -16 4 3 17 -3 28 -13 10 -9 19 -13 19 -8 0 5
5 1 11 -9 10 -17 12 -17 28 2 10 12 21 21 25 21 7 0 -15 -42 -28 -51 -4 -4 -5
-15 -2 -26 8 -25 -32 -29 -50 -5 -11 15 -13 13 -12 -17 1 -39 24 -72 44 -64 8
3 14 1 14 -5 0 -14 40 -23 41 -9 1 7 0 26 -1 43 -1 18 3 35 9 39 6 3 11 -2 11
-13 0 -11 9 -22 19 -25 20 -5 24 -25 15 -72 -2 -15 -11 -20 -36 -21 -18 0 -35
2 -38 5 -3 3 -18 13 -35 22 -16 10 -34 26 -40 37 -5 12 -20 23 -32 27 -13 3
-23 10 -23 15 0 6 -4 10 -9 10 -11 0 -9 -39 3 -58 4 -7 4 -17 1 -22 -3 -5 -2
-10 4 -10 17 0 24 22 10 31 -7 4 -10 11 -6 16 11 10 97 -87 97 -109 0 -20 16
-24 22 -6 3 8 11 6 25 -7 l21 -20 -44 4 c-48 3 -49 0 -21 -57 8 -17 8 -28 -1
-43 -10 -16 -9 -23 8 -41 11 -12 20 -32 20 -45 0 -16 4 -21 16 -16 12 4 15 0
13 -18 -3 -30 10 -61 22 -53 9 5 71 -33 77 -48 2 -4 10 -8 17 -8 8 0 17 -5 20
-10 11 -17 -17 -7 -63 23 -42 28 -62 29 -62 1 0 -8 -4 -14 -10 -14 -5 0 -10
12 -10 27 0 17 -4 23 -9 17 -12 -11 -2 -66 10 -58 14 8 11 -6 -5 -21 -11 -12
-18 1 -45 78 -17 51 -49 126 -71 167 -72 140 -100 202 -95 210 3 5 0 10 -5 12
-6 2 -13 21 -16 43 -2 22 -7 48 -10 59 -4 12 -2 16 5 12 14 -9 14 -3 -1 29
-11 25 -38 35 -38 13 0 -6 -3 -8 -6 -5 -4 4 -1 13 6 22 11 13 10 14 -3 10 -11
-5 -17 2 -22 27 -4 18 -21 58 -38 88 -17 30 -30 55 -29 55 7 0 -13 41 -26 54
-7 7 -11 20 -8 28 3 8 2 11 -3 8 -5 -3 -13 5 -17 17 -4 13 -24 61 -46 107 -21
46 -37 90 -34 98 3 8 2 12 -3 9 -11 -7 -26 29 -41 98 -7 36 -30 86 -61 137
-27 44 -47 84 -44 89 3 5 -4 14 -15 20 -11 6 -18 14 -16 19 6 9 -65 204 -83
224 -7 10 -10 25 -6 38 4 13 3 19 -2 16 -6 -4 -8 4 -5 20 3 18 1 24 -7 19 -6
-4 -14 0 -17 11 -4 10 -15 37 -26 60 -11 23 -19 45 -19 48 1 3 -10 28 -24 55
-14 28 -23 56 -19 62 4 6 3 8 -3 5 -6 -4 -13 2 -16 13 -3 11 -1 23 4 26 5 3 7
10 3 15 -3 5 -9 7 -14 4 -5 -3 -7 11 -6 30 2 19 0 35 -4 35 -4 0 -10 14 -13
30 -4 18 -13 30 -22 30 -8 0 -15 6 -15 14 0 8 -6 17 -12 19 -7 3 -3 6 10 6 12
1 22 -4 22 -10 0 -5 5 -7 12 -3 9 6 9 9 0 12 -9 3 -9 9 -1 24 11 20 13 20 46
-21 26 -31 40 -40 54 -36z m1609 40 c0 -8 -4 -15 -9 -15 -5 0 -11 7 -15 15 -3
9 0 15 9 15 8 0 15 -7 15 -15z m638 -50 c-3 -3 -9 2 -12 12 -6 14 -5 15 5 6 7
-7 10 -15 7 -18z m-788 0 c0 -8 -4 -15 -10 -15 -5 0 -10 7 -10 15 0 8 5 15 10
15 6 0 10 -7 10 -15z m734 -20 c-4 -8 -10 -12 -15 -9 -11 6 -2 24 11 24 5 0 7
-7 4 -15z m136 -4 c-10 -21 -30 -37 -30 -26 0 14 21 45 31 45 6 0 6 -7 -1 -19z
m-80 -11 c0 -5 -7 -10 -15 -10 -8 0 -15 5 -15 10 0 6 7 10 15 10 8 0 15 -4 15
-10z m1120 0 c0 -5 -4 -10 -10 -10 -5 0 -10 5 -10 10 0 6 5 10 10 10 6 0 10
-4 10 -10z m-2002 -25 c-3 -3 -9 2 -12 12 -6 14 -5 15 5 6 7 -7 10 -15 7 -18z
m831 -9 c10 -12 8 -17 -8 -25 -28 -15 -41 -14 -41 5 0 8 5 12 10 9 6 -3 15 -3
22 1 8 5 6 10 -8 15 -15 6 -15 8 -3 8 9 1 22 -5 28 -13z m51 -6 c0 -5 -5 -10
-11 -10 -5 0 -7 5 -4 10 3 6 8 10 11 10 2 0 4 -4 4 -10z m1156 -34 c-3 -12 -8
-40 -12 -63 -3 -23 -16 -50 -27 -60 -11 -10 -17 -12 -13 -5 4 7 1 15 -8 18 -9
3 -13 10 -10 15 3 5 0 9 -6 9 -7 0 -9 -8 -5 -21 10 -30 -3 -72 -20 -65 -8 3
-17 1 -21 -5 -3 -5 -13 -7 -22 -5 -27 9 -45 -9 -40 -38 3 -14 2 -26 -1 -26 -3
0 -12 -4 -20 -9 -10 -7 -11 -13 -2 -30 10 -17 9 -20 -4 -15 -8 4 -15 11 -15
17 0 6 -3 8 -6 5 -3 -4 0 -16 6 -28 7 -12 8 -20 2 -16 -17 10 -45 -32 -47 -71
-1 -21 -3 -50 -4 -65 -1 -20 -6 -28 -19 -28 -27 0 -65 -56 -58 -86 5 -17 1
-27 -14 -36 -11 -7 -20 -18 -20 -24 0 -6 -7 -17 -15 -24 -11 -9 -14 -23 -9
-46 8 -42 -3 -61 -22 -37 -12 17 -13 17 -14 1 0 -11 -8 -18 -19 -18 -11 0 -28
-15 -41 -35 -12 -19 -25 -33 -29 -31 -4 3 -15 -8 -25 -25 -9 -16 -12 -29 -7
-29 6 0 11 -4 11 -9 0 -15 -46 -61 -60 -61 -10 0 -10 -3 0 -15 24 -29 -43 -85
-102 -85 -15 0 -18 5 -13 20 4 14 2 20 -9 20 -24 0 -31 -22 -11 -36 21 -16 13
-44 -13 -44 -18 0 -66 -59 -84 -102 -4 -10 -11 -18 -16 -18 -5 0 -12 -13 -15
-30 -4 -16 -20 -44 -37 -61 -16 -18 -30 -40 -30 -51 0 -15 -5 -17 -27 -12
l-28 7 20 -23 c13 -15 16 -24 8 -27 -37 -13 -92 -65 -98 -92 -4 -17 -13 -31
-20 -31 -19 0 -25 -26 -10 -46 11 -16 10 -22 -11 -47 -14 -17 -24 -42 -24 -60
l0 -32 -15 25 c-32 57 -34 67 -18 103 9 19 27 40 41 46 18 9 23 17 19 33 -4
13 5 43 23 77 15 31 35 71 43 90 l15 35 -2 -40 c-1 -21 -5 -45 -10 -52 -7 -11
-4 -11 13 0 22 13 28 28 11 28 -5 0 -7 6 -4 14 3 9 12 12 22 9 11 -5 14 -2 10
9 -9 22 12 101 30 115 8 7 22 34 32 60 9 26 27 66 41 88 13 22 24 44 24 49 0
5 20 11 45 13 30 3 54 12 71 29 14 13 54 39 90 57 50 26 63 38 61 53 -14 75
-13 100 6 120 11 11 25 30 31 43 9 15 18 20 32 16 12 -4 21 -1 25 8 3 9 17 18
31 22 24 6 25 9 20 55 -5 41 -2 55 19 85 13 20 24 40 24 45 0 15 51 70 60 65
4 -3 19 -1 32 4 l23 10 -22 0 c-27 1 -28 7 -8 27 9 10 15 34 15 64 0 31 5 52
14 57 12 7 31 44 64 125 7 16 23 30 45 37 26 9 38 21 50 51 17 45 43 60 100
58 33 -2 37 -5 33 -22z m-1356 -6 c-24 -15 -36 -11 -14 4 10 8 21 12 24 10 2
-3 -2 -9 -10 -14z m-339 -91 c-20 -26 -20 -30 -6 -27 10 1 23 12 29 23 15 27
27 35 54 35 31 0 112 -56 112 -78 0 -13 2 -14 8 -4 5 7 16 10 25 6 10 -3 17
-1 17 6 0 9 47 11 183 9 102 -2 189 1 197 6 8 5 23 8 33 7 9 -2 17 2 17 9 0 7
6 5 13 -6 10 -12 16 -14 21 -7 4 7 12 12 17 12 6 0 8 -4 5 -9 -8 -12 47 -9 56
4 4 5 8 0 8 -12 0 -20 3 -21 30 -12 24 9 33 8 47 -7 13 -12 14 -19 5 -22 -14
-4 -16 -28 -2 -37 5 -3 21 2 35 11 23 15 25 15 25 0 0 -16 15 -22 23 -8 2 4 2
2 1 -5 -2 -6 2 -14 9 -17 7 -3 1 -3 -12 0 -17 4 -22 2 -19 -7 3 -8 12 -13 21
-13 9 1 26 -10 39 -24 19 -20 20 -24 5 -19 -12 5 -20 1 -23 -11 -8 -22 -24
-63 -35 -84 -7 -13 -5 -18 5 -18 13 0 29 23 31 45 1 20 17 35 36 35 10 0 19 5
19 10 0 6 5 10 10 10 18 0 11 -18 -19 -53 -20 -23 -27 -37 -21 -47 10 -16 4
-30 -11 -30 -6 0 -7 9 -3 22 5 18 -2 15 -44 -18 -48 -38 -49 -39 -28 -51 29
-17 46 -16 68 4 27 24 40 5 23 -34 -8 -19 -21 -33 -31 -33 -15 0 -14 4 6 25
29 31 18 46 -13 18 -25 -23 -53 -35 -81 -37 -25 -1 -34 -26 -10 -26 14 0 15
-3 6 -12 -17 -17 -15 -30 6 -26 9 2 25 -3 34 -11 16 -14 16 -15 0 -27 -15 -12
-15 -13 6 -14 12 0 22 -5 22 -10 0 -6 6 -10 13 -8 13 3 57 -31 57 -44 0 -5 -9
-8 -20 -8 -12 0 -20 7 -20 16 0 11 -5 14 -16 10 -9 -4 -23 -1 -31 6 -11 9 -16
9 -23 -2 -5 -9 -19 -11 -43 -7 -25 4 -37 1 -41 -9 -8 -20 -22 -18 -47 7 -16
16 -23 18 -34 9 -8 -7 -19 -9 -25 -5 -5 3 -10 1 -10 -4 0 -15 -27 -14 -33 2
-3 9 -9 8 -23 -4 -10 -9 -32 -19 -48 -22 -24 -4 -35 1 -58 25 -15 17 -25 34
-22 39 3 5 -5 9 -16 9 -13 0 -24 -8 -27 -19 -3 -12 -17 -23 -34 -26 -28 -6
-41 -23 -16 -22 31 1 47 -4 47 -14 0 -11 -58 -3 -73 10 -11 10 15 59 38 70 19
9 18 10 -5 10 -32 1 -57 -14 -41 -23 8 -5 7 -12 -4 -22 -8 -9 -15 -23 -15 -33
0 -18 -10 -20 -93 -21 -28 -1 -56 5 -69 14 -16 11 -18 16 -7 16 8 0 20 -5 27
-12 9 -9 12 -8 12 5 0 12 8 17 29 17 34 0 101 26 101 40 0 6 -10 10 -21 10
-17 0 -19 3 -10 14 20 23 -6 30 -45 11 -18 -9 -34 -21 -34 -28 0 -7 -12 -13
-26 -14 -15 0 -33 -8 -41 -16 -13 -12 -19 -13 -40 -2 -17 9 -35 10 -61 4 -20
-5 -52 -12 -69 -16 -18 -3 -33 -10 -33 -15 0 -6 -7 -8 -15 -4 -8 3 -18 -2 -23
-11 -14 -23 -35 -7 -22 17 15 28 13 31 -17 28 -43 -5 -94 -48 -87 -72 3 -12 2
-16 -3 -11 -13 16 -72 34 -79 24 -3 -5 -11 -9 -17 -8 -9 0 -9 2 0 5 7 3 9 12
6 20 -6 16 -53 20 -53 4 0 -5 5 -10 11 -10 5 0 7 -5 4 -10 -4 -7 -14 -5 -26 4
-13 9 -35 12 -62 9 -35 -5 -40 -3 -29 8 6 7 12 16 12 20 0 12 -54 18 -67 7
-17 -14 -47 -2 -58 24 -8 18 -19 23 -48 24 -45 1 -55 9 -40 33 9 14 9 21 0 30
-8 8 -8 11 0 11 16 0 26 32 12 41 -15 9 -3 28 27 39 32 12 30 26 -5 48 l-28
17 18 35 c11 19 19 40 19 46 0 7 7 15 16 18 8 3 12 10 9 16 -3 6 1 7 9 4 10
-4 16 -1 16 9 0 8 8 17 19 20 14 3 18 13 16 39 -1 20 -6 41 -10 48 -5 9 -4 11
3 6 11 -7 18 12 24 64 3 22 9 26 55 30 32 3 55 1 57 -5 2 -5 5 -1 5 10 1 15 3
17 10 6 6 -9 14 -10 27 -3 11 5 86 10 168 11 83 1 152 4 155 6 2 3 7 3 9 0 3
-3 -5 -19 -17 -36z m-1490 -6 c13 -16 12 -17 -3 -4 -17 13 -22 21 -14 21 2 0
10 -8 17 -17z m209 -123 c0 -11 -3 -11 -8 -3 -4 6 -20 16 -35 22 -15 6 -27 15
-27 19 0 5 16 2 35 -7 19 -9 34 -23 35 -31z m2817 8 c-3 -8 -6 -5 -6 6 -1 11
2 17 5 13 3 -3 4 -12 1 -19z m-429 -94 c2 -19 -4 -36 -15 -46 -17 -16 -18 -14
-15 33 4 55 25 64 30 13z m-2413 16 c3 -5 -1 -10 -10 -10 -9 0 -13 5 -10 10 3
6 8 10 10 10 2 0 7 -4 10 -10z m-15 -35 c17 -21 5 -31 -15 -12 -8 9 -15 18
-15 21 0 11 18 6 30 -9z m2421 -68 c-10 -9 -11 -8 -5 6 3 10 9 15 12 12 3 -3
0 -11 -7 -18z m349 13 c0 -5 -5 -10 -11 -10 -5 0 -7 5 -4 10 3 6 8 10 11 10 2
0 4 -4 4 -10z m-2772 -76 c-4 -3 -12 5 -18 18 -12 22 -12 22 6 6 10 -10 15
-20 12 -24z m2290 25 c-2 -6 -8 -10 -13 -10 -5 0 -11 4 -13 10 -2 6 4 11 13
11 9 0 15 -5 13 -11z m-2148 -8 c12 -1 13 -41 1 -60 -13 -20 -71 16 -71 44 0
19 16 23 70 16z m-95 -21 c3 -5 1 -10 -4 -10 -6 0 -11 5 -11 10 0 6 2 10 4 10
3 0 8 -4 11 -10z m-25 -19 c0 -5 -9 -11 -21 -14 -16 -4 -18 -3 -8 9 13 16 29
19 29 5z m227 -33 c-1 -15 5 -23 19 -27 28 -8 70 -60 72 -90 0 -13 7 -28 14
-32 7 -5 10 -9 6 -9 -11 0 -113 54 -116 62 -8 18 -23 6 -17 -13 6 -17 4 -20
-12 -15 -14 4 -22 0 -29 -16 -6 -13 -9 -17 -7 -9 2 7 6 33 9 58 4 37 2 45 -9
40 -10 -4 -16 3 -20 19 -5 28 7 41 48 47 17 2 33 5 37 6 4 0 7 -9 5 -21z
m-196 -21 c-10 -9 -11 -8 -5 6 3 10 9 15 12 12 3 -3 0 -11 -7 -18z m99 -39 c0
-14 -15 -16 -27 -3 -10 11 -9 13 7 12 11 -1 20 -5 20 -9z m20 -39 c0 -6 -4 -7
-10 -4 -5 3 -10 11 -10 16 0 6 5 7 10 4 6 -3 10 -11 10 -16z m428 -42 c40 -30
55 -50 70 -90 11 -29 24 -52 28 -52 15 0 64 -61 64 -79 0 -9 18 -34 40 -56 22
-22 40 -44 40 -50 0 -7 8 -9 21 -5 12 4 27 8 33 9 6 1 16 5 22 8 6 4 52 -13
103 -38 73 -36 99 -44 124 -39 30 5 31 5 9 -8 -17 -10 -19 -16 -10 -25 8 -8
15 -8 24 -1 10 8 12 3 7 -25 -5 -31 0 -41 37 -83 33 -38 39 -49 25 -51 -9 -2
-25 4 -34 12 -14 13 -24 14 -45 7 -14 -6 -26 -15 -26 -20 0 -5 -9 -9 -19 -8
-16 1 -19 7 -15 32 13 76 13 76 35 64 28 -14 31 -9 10 18 -18 21 -95 53 -130
53 -10 0 -24 12 -32 27 -18 33 -71 56 -110 48 -19 -4 -29 -3 -29 5 0 6 -6 10
-12 8 -17 -6 -38 16 -38 39 0 22 -85 116 -101 111 -14 -5 -7 -23 9 -22 6 1 12
-5 12 -13 0 -11 -7 -13 -22 -10 -19 5 -23 2 -24 -19 -2 -18 4 -26 22 -30 13
-3 24 -10 24 -15 0 -5 -11 -7 -25 -3 -15 4 -25 2 -25 -5 0 -6 5 -11 11 -11 8
0 7 -5 -1 -15 -11 -13 -10 -14 6 -9 18 7 18 6 -1 -17 -11 -13 -20 -25 -21 -27
-1 -1 -8 0 -17 4 -12 4 -15 14 -11 34 4 15 1 31 -5 34 -7 5 -11 -2 -11 -18 0
-14 -4 -27 -9 -30 -12 -8 -1 100 13 122 4 6 -5 17 -20 25 l-26 14 46 13 c50
14 74 34 56 45 -6 4 -17 4 -25 1 -8 -3 -15 -1 -15 3 0 5 -9 7 -20 4 -15 -4
-19 -11 -15 -24 6 -18 -9 -25 -39 -20 -4 1 -15 -4 -24 -11 -9 -8 -13 -8 -9 -2
4 7 0 15 -9 18 -13 5 -14 9 -3 22 10 13 9 16 -10 21 -29 7 -21 29 10 25 19 -2
21 -1 9 7 -8 6 -25 11 -37 11 -13 0 -23 6 -23 14 0 11 -41 32 -46 23 -1 -1
-11 6 -23 17 -15 14 -18 23 -11 36 8 16 68 43 115 53 21 4 25 2 103 -56z
m-556 31 c-7 -7 -12 -8 -12 -2 0 6 3 14 7 17 3 4 9 5 12 2 2 -3 -1 -11 -7 -17z
m168 -121 c0 -5 -7 -4 -15 3 -13 11 -14 10 -10 -3 4 -8 2 -18 -4 -22 -7 -4
-10 8 -9 34 1 40 1 40 20 19 10 -12 18 -25 18 -31z m1650 33 c0 -5 -7 -10 -15
-10 -8 0 -15 5 -15 10 0 6 7 10 15 10 8 0 15 -4 15 -10z m-1835 -21 c11 -17
-1 -21 -15 -4 -8 9 -8 15 -2 15 6 0 14 -5 17 -11z m2045 1 c0 -5 -4 -10 -10
-10 -5 0 -10 5 -10 10 0 6 5 10 10 10 6 0 10 -4 10 -10z m-643 -16 c-3 -3 -12
-4 -19 -1 -8 3 -5 6 6 6 11 1 17 -2 13 -5z m190 -16 c75 -11 88 -23 45 -43
-23 -10 -30 -25 -12 -25 6 0 10 -5 10 -11 0 -5 -5 -7 -10 -4 -6 3 -14 -5 -19
-18 -5 -13 -17 -27 -27 -31 -16 -6 -16 -7 1 -20 17 -12 17 -13 -1 -20 -31 -12
-52 24 -50 89 0 30 -2 55 -6 55 -5 0 -8 -8 -8 -18 0 -11 -7 -18 -20 -18 -13 0
-20 7 -20 18 0 10 -4 18 -10 18 -17 0 -11 28 8 39 9 6 23 8 31 5 8 -2 47 -10
88 -16z m-327 -10 c0 -21 -43 -36 -68 -25 -34 15 -26 29 13 21 23 -4 35 -2 35
5 0 6 5 11 10 11 6 0 10 -6 10 -12z m152 -19 l-9 -23 -11 21 c-10 18 -9 22 6
25 23 6 24 5 14 -23z m397 12 c14 -25 42 -35 53 -19 5 9 8 7 8 -6 0 -11 -10
-30 -22 -43 -25 -27 -53 -31 -44 -7 8 21 -33 64 -61 64 -13 0 -23 4 -23 9 0 8
17 13 67 20 7 0 17 -7 22 -18z m316 -11 c4 -6 1 -17 -5 -26 -11 -12 -14 -12
-26 3 -7 10 -14 21 -14 26 0 11 38 8 45 -3z m-2122 -20 c6 -24 3 -25 -17 -4
-9 9 -16 11 -16 4 0 -6 -4 -8 -10 -5 -17 11 -11 21 14 23 16 1 25 -5 29 -18z
m57 -2 c0 -19 -2 -20 -10 -8 -13 19 -13 30 0 30 6 0 10 -10 10 -22z m1090 1
c0 -5 -7 -9 -15 -9 -9 0 -12 6 -9 15 6 15 24 11 24 -6z m820 7 c0 -11 -19 -15
-25 -6 -3 5 1 10 9 10 9 0 16 -2 16 -4z m61 -9 c-1 -12 -15 -9 -19 4 -3 6 1
10 8 8 6 -3 11 -8 11 -12z m-651 -1 c0 -14 -21 -58 -26 -53 -3 3 -1 14 5 25 8
15 8 22 -2 25 -7 3 -5 6 6 6 9 1 17 -1 17 -3z m-140 -31 c-7 -9 -15 -13 -18
-10 -3 2 1 11 8 20 7 9 15 13 18 10 3 -2 -1 -11 -8 -20z m85 15 c3 -6 -1 -7
-9 -4 -18 7 -21 14 -7 14 6 0 13 -4 16 -10z m-1354 -27 c-12 -20 -14 -14 -5
12 4 9 9 14 11 11 3 -2 0 -13 -6 -23z m474 17 c3 -5 1 -10 -4 -10 -6 0 -11 5
-11 10 0 6 2 10 4 10 3 0 8 -4 11 -10z m1540 0 c-3 -5 -10 -10 -16 -10 -5 0
-9 5 -9 10 0 6 7 10 16 10 8 0 12 -4 9 -10z m100 0 c3 -5 -1 -10 -10 -10 -9 0
-13 5 -10 10 3 6 8 10 10 10 2 0 7 -4 10 -10z m-1967 -17 c18 -18 24 -61 10
-79 -4 -6 -6 -28 -3 -49 3 -27 1 -35 -6 -28 -12 12 -19 73 -9 73 9 0 6 67 -3
76 -3 4 -13 1 -22 -6 -18 -15 -20 1 -3 18 15 15 16 15 36 -5z m-72 -5 c5 -7 3
-8 -6 -3 -9 6 -10 2 -5 -16 7 -23 7 -24 -9 -4 -8 11 -16 23 -16 28 0 11 28 8
36 -5z m1216 -22 c22 -17 32 -86 13 -86 -9 0 -12 -6 -9 -15 4 -8 1 -22 -6 -30
-11 -13 -9 -20 9 -38 19 -21 29 -57 16 -57 -3 0 -22 9 -42 20 -46 25 -59 25
-72 3 -9 -16 -10 -15 -11 6 0 13 10 40 22 59 15 25 18 37 10 40 -18 6 -14 40
5 51 10 5 15 13 11 17 -10 9 10 44 25 44 7 0 20 -7 29 -14z m186 -9 c14 -16
-10 -49 -31 -42 -12 5 -12 11 -3 31 12 27 19 29 34 11z m558 -22 c-3 -9 -11
-13 -16 -10 -8 5 -7 11 1 21 14 18 24 11 15 -11z m-216 11 c0 -11 -19 -15 -25
-6 -3 5 1 10 9 10 9 0 16 -2 16 -4z m180 -17 c0 -12 -33 -27 -47 -22 -7 3 -13
9 -13 15 0 6 7 8 15 4 9 -3 15 0 15 9 0 9 6 12 15 9 8 -4 15 -10 15 -15z
m-1885 -39 c-5 -7 -12 -2 -21 15 -20 38 -17 43 7 18 12 -12 18 -26 14 -33z
m190 40 c3 -5 2 -10 -4 -10 -5 0 -13 5 -16 10 -3 6 -2 10 4 10 5 0 13 -4 16
-10z m400 0 c-3 -5 -10 -10 -16 -10 -5 0 -9 5 -9 10 0 6 7 10 16 10 8 0 12 -4
9 -10z m936 -90 c17 -13 18 -18 6 -34 -11 -15 -17 -17 -35 -7 -20 10 -22 9
-22 -11 0 -19 -2 -20 -10 -8 -5 8 -10 23 -10 32 0 15 4 16 25 6 36 -16 42 -3
16 32 -12 17 -19 36 -15 42 5 7 11 3 16 -13 5 -13 18 -31 29 -39z m-1 50 c0
-5 -2 -10 -4 -10 -3 0 -8 5 -11 10 -3 6 -1 10 4 10 6 0 11 -4 11 -10z m69 -31
c-19 -12 -29 -11 -29 1 0 6 5 10 10 10 6 0 10 8 10 18 1 15 2 15 11 -2 9 -14
8 -20 -2 -27z m-1528 -20 c-10 -23 -10 -22 -7 6 6 39 7 42 12 29 3 -6 0 -22
-5 -35z m1829 37 c0 -2 -7 -9 -15 -16 -13 -11 -14 -10 -9 4 5 14 24 23 24 12z
m-50 -26 c0 -5 -2 -10 -4 -10 -3 0 -8 5 -11 10 -3 6 -1 10 4 10 6 0 11 -4 11
-10z m-240 -33 c0 -12 -4 -28 -9 -36 -13 -21 -24 4 -16 39 7 34 25 31 25 -3z
m-1580 8 c7 -9 8 -15 2 -15 -5 0 -12 7 -16 15 -3 8 -4 15 -2 15 2 0 9 -7 16
-15z m350 1 c0 -3 -4 -8 -10 -11 -5 -3 -10 -1 -10 4 0 6 5 11 10 11 6 0 10 -2
10 -4z m469 -31 c21 -19 43 -35 48 -35 6 0 15 -6 21 -12 8 -10 3 -14 -19 -15
-15 -1 -31 2 -34 7 -3 5 -12 7 -20 3 -8 -3 -15 0 -15 5 0 6 -21 10 -50 8 -40
-2 -50 1 -50 14 0 20 11 34 35 48 31 18 42 15 84 -23z m1150 -9 c-11 -24 -13
-24 -25 -8 -7 9 -13 22 -14 27 0 6 5 3 10 -5 9 -13 12 -13 21 3 16 27 22 14 8
-17z m-325 -8 c-5 -7 -7 -21 -6 -30 2 -10 -2 -18 -7 -18 -12 0 -14 23 -5 58 5
15 10 20 16 14 6 -6 7 -16 2 -24z m134 -7 c-15 -5 -21 7 -13 26 7 17 8 17 15
-2 4 -11 3 -22 -2 -24z m84 17 c-7 -7 -12 -8 -12 -2 0 14 12 26 19 19 2 -3 -1
-11 -7 -17z m-552 2 c0 -5 7 -10 15 -10 8 0 15 -4 15 -9 0 -12 -33 -9 -42 4
-11 14 -10 25 2 25 6 0 10 -4 10 -10z m60 0 c0 -5 -4 -10 -10 -10 -5 0 -10 5
-10 10 0 6 5 10 10 10 6 0 10 -4 10 -10z m180 -20 c0 -5 -7 -10 -15 -10 -7 0
-19 -8 -24 -17 -6 -11 -11 -13 -11 -5 0 17 22 41 38 42 6 0 12 -4 12 -10z
m-1340 -14 c0 -3 -4 -8 -10 -11 -5 -3 -10 -1 -10 4 0 6 5 11 10 11 6 0 10 -2
10 -4z m1664 -10 c-3 -8 -13 -17 -22 -21 -13 -5 -13 -2 3 15 21 24 26 25 19 6z
m-80 -11 c-7 -16 -24 -21 -24 -6 0 8 7 13 27 20 1 1 0 -6 -3 -14z m-834 -17
c0 -13 -23 -5 -28 10 -2 7 2 10 12 6 9 -3 16 -11 16 -16z m508 -22 c-10 -7
-18 -18 -18 -25 0 -6 -5 -11 -10 -11 -23 0 37 -48 73 -60 29 -9 36 -15 28 -23
-9 -9 -17 -8 -31 1 -17 10 -20 10 -20 -3 0 -11 -4 -13 -17 -6 -10 5 -26 12
-35 15 -10 3 -18 10 -18 16 0 6 5 8 10 5 25 -15 6 11 -41 57 -28 27 -48 52
-46 55 3 3 12 1 19 -3 7 -5 27 -9 45 -9 24 0 33 5 37 20 5 19 6 19 23 2 17
-17 17 -19 1 -31z m84 22 c-7 -7 -12 -8 -12 -2 0 14 12 26 19 19 2 -3 -1 -11
-7 -17z m-1382 -18 c0 -5 -5 -10 -11 -10 -5 0 -7 5 -4 10 3 6 8 10 11 10 2 0
4 -4 4 -10z m299 6 c-2 -2 -14 -9 -26 -15 -19 -10 -22 -9 -17 4 4 8 15 15 27
15 11 0 18 -2 16 -4z m-43 -83 c-11 -11 -19 6 -11 24 8 17 8 17 12 0 3 -10 2
-21 -1 -24z m1140 8 c17 -11 15 -11 -11 -6 -16 3 -40 6 -52 6 -12 -1 -25 3
-28 8 -8 13 68 6 91 -8z m-194 -13 c-7 -7 -12 -8 -12 -2 0 14 12 26 19 19 2
-3 -1 -11 -7 -17z m448 12 c23 -1 -7 -16 -48 -23 -30 -6 -32 -5 -21 14 8 15
17 19 32 15 12 -3 29 -6 37 -6z m50 0 c0 -5 -4 -10 -10 -10 -5 0 -10 5 -10 10
0 6 5 10 10 10 6 0 10 -4 10 -10z m-626 -73 c13 -12 34 -30 47 -40 16 -12 20
-20 12 -23 -7 -3 -13 -12 -13 -20 0 -20 -17 -17 -29 4 -7 13 -6 23 2 31 9 10
6 11 -18 5 -16 -3 -34 -11 -40 -17 -7 -7 -6 -8 2 -3 12 6 29 -11 20 -20 -12
-13 -44 18 -56 53 -7 21 -15 44 -18 52 -9 22 62 5 91 -22z m-1080 -22 c-4 -8
-10 -13 -15 -10 -4 3 -6 12 -3 20 4 8 10 13 15 10 4 -3 6 -12 3 -20z m239 5
c3 -11 1 -18 -4 -14 -5 3 -9 12 -9 20 0 20 7 17 13 -6z m-143 -56 c0 -8 -10
-14 -25 -14 -16 0 -25 6 -25 16 0 8 4 13 9 9 5 -3 12 -1 16 5 8 13 25 3 25
-16z m-190 12 c0 -3 -4 -8 -10 -11 -5 -3 -10 -1 -10 4 0 6 5 11 10 11 6 0 10
-2 10 -4z m320 -21 c0 -8 -4 -15 -10 -15 -5 0 -7 7 -4 15 4 8 8 15 10 15 2 0
4 -7 4 -15z m950 -16 c0 -6 -4 -7 -10 -4 -5 3 -10 11 -10 16 0 6 5 7 10 4 6
-3 10 -11 10 -16z m-1070 -9 c0 -5 8 -10 17 -10 12 0 14 -3 7 -10 -13 -13 -67
8 -58 21 7 12 34 11 34 -1z m74 -5 c5 -13 2 -14 -17 -4 -32 17 -33 19 -10 19
12 0 23 -7 27 -15z m-274 -15 c0 -5 -2 -10 -4 -10 -3 0 -8 5 -11 10 -3 6 -1
10 4 10 6 0 11 -4 11 -10z m170 -25 c0 -8 -4 -15 -10 -15 -5 0 -10 7 -10 15 0
8 5 15 10 15 6 0 10 -7 10 -15z m132 -33 c-7 -2 -12 -19 -12 -38 0 -21 -4 -33
-10 -29 -5 3 -10 15 -10 26 0 26 22 59 34 52 6 -4 5 -8 -2 -11z m349 -99 c13
-16 12 -17 -3 -4 -17 13 -22 21 -14 21 2 0 10 -8 17 -17z m-331 -13 c0 -5 -2
-10 -4 -10 -3 0 -8 5 -11 10 -3 6 -1 10 4 10 6 0 11 -4 11 -10z m1105 -30 c3
-5 1 -10 -4 -10 -6 0 -11 5 -11 10 0 6 2 10 4 10 3 0 8 -4 11 -10z m-981 -101
c-3 -5 -10 -7 -15 -3 -5 3 -7 10 -3 15 3 5 10 7 15 3 5 -3 7 -10 3 -15z m1242
-36 c-11 -11 -19 6 -11 24 8 17 8 17 12 0 3 -10 2 -21 -1 -24z m-1202 8 c3 -5
-5 -8 -19 -8 -14 0 -22 3 -19 8 3 5 11 9 19 9 8 0 16 -4 19 -9z m1176 -30 c0
-26 -7 -33 -60 -58 -52 -24 -60 -32 -66 -63 -4 -19 -15 -43 -25 -54 -11 -11
-19 -23 -19 -28 0 -4 -7 -8 -15 -8 -8 0 -34 -19 -56 -41 -46 -46 -64 -40 -54
15 9 49 42 73 143 102 9 3 10 9 4 20 -6 10 -5 31 3 57 9 32 20 44 56 63 63 33
89 32 89 -5z m-1293 -7 c-6 -6 -47 9 -47 17 0 5 11 3 25 -3 14 -6 24 -13 22
-14z m-122 6 c3 -5 1 -10 -4 -10 -6 0 -11 5 -11 10 0 6 2 10 4 10 3 0 8 -4 11
-10z m5 -52 c0 -17 -17 -7 -28 17 -17 37 -15 41 8 15 11 -13 20 -27 20 -32z
m500 32 c0 -5 -4 -10 -10 -10 -5 0 -10 5 -10 10 0 6 5 10 10 10 6 0 10 -4 10
-10z m-335 -9 c3 -5 1 -12 -5 -16 -5 -3 -10 1 -10 9 0 18 6 21 15 7z m60 -33
c35 6 75 -22 68 -48 -3 -11 -10 -20 -15 -20 -5 0 -6 -4 -3 -10 3 -5 0 -7 -9
-4 -8 3 -12 12 -9 20 3 8 -1 14 -11 14 -9 0 -16 5 -16 10 0 6 -7 10 -15 10 -8
0 -15 5 -15 10 0 6 -7 10 -15 10 -13 0 -14 2 -3 14 10 11 14 11 16 1 2 -7 13
-10 27 -7z m-235 -28 c-8 -5 -19 -10 -25 -10 -5 0 -3 5 5 10 8 5 20 10 25 10
6 0 3 -5 -5 -10z m350 -31 c0 -11 -27 -12 -34 0 -3 4 -3 11 0 14 8 8 34 -3 34
-14z m30 -37 c-8 -3 -19 -11 -23 -18 -13 -22 -27 -16 -24 9 3 30 17 38 41 25
17 -9 18 -12 6 -16z m-54 -9 c-7 -7 -26 7 -26 19 0 6 6 6 15 -2 9 -7 13 -15
11 -17z m-51 -53 c3 -5 1 -10 -4 -10 -6 0 -11 5 -11 10 0 6 2 10 4 10 3 0 8
-4 11 -10z m176 -54 c21 19 21 19 23 -16 1 -19 -3 -26 -16 -26 -10 0 -18 4
-18 9 0 5 -7 4 -14 -3 -13 -10 -14 -7 -12 17 5 37 7 42 13 20 5 -18 6 -18 24
-1z m695 -61 c-1 -19 -12 -45 -24 -58 -14 -15 -18 -27 -12 -33 5 -5 6 -15 1
-22 -10 -17 -44 -4 -37 15 3 8 6 25 6 37 0 17 55 96 67 96 1 0 1 -16 -1 -35z
m-1046 -6 c0 -10 5 -19 10 -19 6 0 10 -4 10 -10 0 -5 -6 -9 -12 -7 -7 1 -13
-5 -13 -13 0 -8 10 -16 22 -18 18 -3 22 0 16 15 -3 10 -2 15 3 10 5 -5 14 -27
21 -50 9 -32 10 -43 0 -49 -9 -6 -9 -10 2 -17 7 -5 10 -14 7 -20 -11 -17 10
-13 29 5 9 9 19 13 23 9 4 -3 -1 -12 -11 -19 -21 -16 -22 -36 -2 -36 17 0 20
-16 5 -25 -8 -5 -7 -12 2 -23 11 -13 10 -15 -4 -9 -31 11 -19 -9 32 -56 28
-25 50 -50 50 -55 0 -18 -30 -6 -56 21 -27 30 -47 36 -38 12 4 -8 10 -15 15
-15 16 0 41 -61 30 -74 -5 -6 -6 -18 -2 -25 5 -7 7 -21 4 -31 -3 -9 2 -24 11
-33 14 -14 14 -16 0 -21 -26 -10 -34 -7 -27 11 4 11 3 14 -5 9 -7 -4 -10 -2
-7 6 3 7 -4 38 -15 68 -12 33 -16 56 -10 58 5 2 10 9 10 15 -1 7 -10 1 -20
-12 -16 -19 -20 -20 -20 -6 0 9 -13 50 -30 91 -16 41 -27 81 -24 89 4 8 1 15
-6 15 -6 0 -8 -6 -4 -12 5 -9 4 -10 -3 -3 -6 6 -17 29 -26 52 -14 34 -14 41
-2 37 18 -7 9 31 -13 48 -13 11 -15 10 -9 -4 11 -30 -1 -20 -19 15 -16 31 -16
31 1 17 14 -11 19 -12 22 -2 3 6 11 12 18 12 15 0 27 38 14 46 -15 9 -10 34 6
28 8 -4 15 -15 15 -25z m85 -9 c-3 -4 1 -10 7 -13 7 -2 10 -8 5 -13 -10 -11
-41 21 -32 35 3 6 11 9 16 5 5 -3 7 -9 4 -14z m92 -65 c-5 -15 -44 -14 -44 0
0 7 11 12 24 11 12 0 21 -5 20 -11z m13 -25 c0 -5 -5 -10 -11 -10 -5 0 -7 5
-4 10 3 6 8 10 11 10 2 0 4 -4 4 -10z m655 -14 c26 -1 32 -10 14 -22 -6 -3
-15 -2 -21 4 -7 7 -17 4 -32 -9 -13 -13 -22 -16 -25 -8 -2 6 3 15 10 20 8 5
10 9 5 9 -4 0 -22 -12 -39 -26 -30 -26 -38 -42 -38 -76 0 -11 -6 -15 -15 -11
-8 3 -14 1 -14 -5 0 -6 6 -13 13 -15 7 -3 5 -6 -5 -6 -36 -2 -32 96 5 128 22
18 68 30 94 24 13 -3 34 -6 48 -7z m-608 -12 c-3 -3 -12 -4 -19 -1 -8 3 -5 6
6 6 11 1 17 -2 13 -5z m723 -24 c0 -11 -4 -20 -10 -20 -5 0 -10 9 -10 20 0 11
5 20 10 20 6 0 10 -9 10 -20z m-232 -149 c11 -7 11 -9 -1 -14 -16 -6 -27 0
-27 15 0 10 11 10 28 -1z m-508 -61 c0 -5 -4 -10 -10 -10 -5 0 -10 5 -10 10 0
6 5 10 10 10 6 0 10 -4 10 -10z m634 -87 c14 18 46 24 46 7 0 -5 -8 -10 -17
-10 -10 0 -28 -16 -40 -34 -17 -27 -21 -44 -17 -77 3 -24 8 -47 11 -52 3 -5
-4 -6 -16 -2 -15 5 -21 2 -21 -10 0 -9 4 -13 10 -10 6 3 7 -1 4 -9 -3 -9 -17
-16 -30 -16 -15 0 -24 -6 -24 -16 0 -8 -4 -12 -10 -9 -20 12 -9 55 21 86 26
26 30 38 27 68 -3 20 -1 52 5 71 9 33 10 33 24 15 13 -19 15 -19 27 -2z m-677
-45 c-3 -8 -6 -5 -6 6 -1 11 2 17 5 13 3 -3 4 -12 1 -19z m-22 -100 c1 -13 5
-34 9 -47 5 -15 5 -21 -2 -17 -5 3 -12 16 -15 28 -2 13 -8 31 -12 41 -5 11 -3
17 6 17 8 0 14 -10 14 -22z m32 -55 c-3 -10 -5 -4 -5 12 0 17 2 24 5 18 2 -7
2 -21 0 -30z m-10 -45 c-3 -8 -6 -5 -6 6 -1 11 2 17 5 13 3 -3 4 -12 1 -19z
m611 -31 c7 -6 9 -14 4 -21 -14 -17 -21 -56 -11 -56 20 0 7 -16 -20 -27 -37
-14 -49 -4 -21 17 19 14 38 80 23 80 -3 0 -21 -11 -40 -26 -41 -31 -43 -13 -3
27 29 29 37 30 68 6z"/>
<path d="M4618 3925 c-8 -8 25 -73 40 -79 8 -4 12 6 12 30 0 19 -4 33 -9 30
-5 -3 -11 1 -15 9 -5 15 -18 19 -28 10z"/>
<path d="M4420 3743 c0 -13 5 -23 10 -23 13 0 13 11 0 30 -8 12 -10 11 -10 -7z"/>
<path d="M4562 3700 c0 -14 2 -19 5 -12 2 6 2 18 0 25 -3 6 -5 1 -5 -13z"/>
<path d="M4596 3705 c-3 -9 0 -15 9 -15 9 0 12 -6 9 -15 -10 -25 22 -17 40 10
9 14 12 25 6 25 -5 0 -10 -4 -10 -10 0 -5 -4 -10 -10 -10 -5 0 -10 7 -10 15 0
8 -6 15 -14 15 -8 0 -16 -7 -20 -15z"/>
<path d="M4127 3648 c-28 -22 -10 -68 26 -68 l21 0 -21 15 c-22 16 -22 42 1
57 8 5 8 8 0 8 -5 0 -18 -6 -27 -12z"/>
<path d="M4626 3641 c-4 -5 -2 -12 3 -15 5 -4 12 -2 15 3 4 5 2 12 -3 15 -5 4
-12 2 -15 -3z"/>
<path d="M4366 3631 c-4 -7 -5 -15 -2 -18 9 -9 19 4 14 18 -4 11 -6 11 -12 0z"/>
<path d="M4470 3600 c0 -5 4 -10 9 -10 6 0 13 5 16 10 3 6 -1 10 -9 10 -9 0
-16 -4 -16 -10z"/>
<path d="M4272 3584 c10 -10 20 -15 24 -12 3 4 -5 12 -18 18 -22 12 -22 12 -6
-6z"/>
<path d="M4246 3542 c11 -10 23 -24 27 -32 4 -11 6 -11 6 3 1 21 -22 47 -41
47 -8 -1 -5 -7 8 -18z"/>
<path d="M4030 3454 c0 -11 11 -31 24 -43 21 -19 27 -21 47 -11 20 11 21 13 5
22 -11 6 -22 6 -30 -1 -10 -9 -17 -4 -29 21 -13 26 -17 28 -17 12z"/>
<path d="M4196 3460 c-11 -3 -15 -9 -10 -13 10 -6 42 9 34 16 -3 3 -14 1 -24
-3z"/>
<path d="M1602 3759 c2 -7 10 -15 17 -17 8 -3 12 1 9 9 -2 7 -10 15 -17 17 -8
3 -12 -1 -9 -9z"/>
<path d="M1710 3680 c0 -5 4 -10 9 -10 6 0 13 5 16 10 3 6 -1 10 -9 10 -9 0
-16 -4 -16 -10z"/>
<path d="M1762 3664 c14 -14 21 -15 30 -6 8 8 9 12 1 12 -6 0 -20 3 -30 6 -17
7 -17 6 -1 -12z"/>
<path d="M1498 3633 c7 -3 16 -2 19 1 4 3 -2 6 -13 5 -11 0 -14 -3 -6 -6z"/>
<path d="M1650 3540 c14 -10 27 -16 30 -13 6 6 -30 33 -44 33 -6 0 0 -9 14
-20z"/>
<path d="M1521 3537 c-16 -16 -13 -27 14 -53 15 -14 27 -19 31 -12 3 5 17 8
29 6 13 -3 33 3 46 13 l24 18 -40 17 c-48 21 -90 25 -104 11z m49 -32 c0 -8
-2 -15 -4 -15 -2 0 -6 7 -10 15 -3 8 -1 15 4 15 6 0 10 -7 10 -15z"/>
<path d="M3830 3485 c0 -9 -6 -12 -15 -9 -16 7 -19 -6 -9 -43 4 -13 11 -23 16
-23 6 0 7 7 4 16 -3 8 1 22 9 30 17 17 20 44 5 44 -5 0 -10 -7 -10 -15z"/>
<path d="M3765 3430 c3 -5 8 -10 11 -10 2 0 4 5 4 10 0 6 -5 10 -11 10 -5 0
-7 -4 -4 -10z"/>
<path d="M3881 3424 c0 -11 3 -14 6 -6 3 7 2 16 -1 19 -3 4 -6 -2 -5 -13z"/>
<path d="M3612 3400 c1 -23 4 -27 13 -20 7 6 11 20 8 30 -8 31 -22 24 -21 -10z"/>
<path d="M3697 3370 c3 -11 9 -18 13 -15 4 3 19 -5 34 -16 14 -11 26 -16 26
-11 0 9 -63 62 -73 62 -3 0 -3 -9 0 -20z"/>
<path d="M3846 3373 c-6 -7 42 -43 58 -43 11 0 -13 29 -34 40 -10 5 -20 6 -24
3z"/>
<path d="M3933 3356 c3 -8 1 -16 -6 -19 -7 -2 -2 -9 11 -16 13 -7 31 -9 40 -6
15 6 14 8 -5 16 -13 4 -23 15 -23 24 0 8 -5 15 -11 15 -6 0 -9 -6 -6 -14z"/>
<path d="M3635 3340 c-3 -5 -1 -10 4 -10 6 0 11 5 11 10 0 6 -2 10 -4 10 -3 0
-8 -4 -11 -10z"/>
<path d="M3786 3315 c-9 -26 -7 -32 5 -12 6 10 9 21 6 23 -2 3 -7 -2 -11 -11z"/>
<path d="M3985 3250 c3 -5 8 -10 11 -10 2 0 4 5 4 10 0 6 -5 10 -11 10 -5 0
-7 -4 -4 -10z"/>
<path d="M3960 3220 c0 -5 5 -10 10 -10 6 0 10 5 10 10 0 6 -4 10 -10 10 -5 0
-10 -4 -10 -10z"/>
<path d="M3730 3200 c-6 -11 -8 -20 -5 -20 14 0 45 21 45 30 0 18 -29 10 -40
-10z"/>
<path d="M3616 3182 c-3 -5 7 -9 22 -10 15 0 41 -3 57 -7 20 -5 27 -4 20 3
-14 14 -92 25 -99 14z"/>
<path d="M3470 3012 c0 -10 33 -42 43 -42 14 0 5 16 -18 33 -14 10 -25 14 -25
9z"/>
<path d="M1528 3053 c7 -3 16 -2 19 1 4 3 -2 6 -13 5 -11 0 -14 -3 -6 -6z"/>
<path d="M1526 3006 c3 -9 11 -16 16 -16 13 0 5 23 -10 28 -7 2 -10 -2 -6 -12z"/>
<path d="M1554 2925 c2 -32 8 -61 15 -63 6 -2 11 -11 11 -20 0 -32 36 -112 46
-103 14 14 49 -19 88 -85 43 -72 73 -110 80 -103 3 3 -1 18 -9 33 -8 16 -15
35 -15 43 0 8 -5 11 -10 8 -6 -3 -18 7 -28 24 -9 17 -20 31 -24 31 -5 0 -8 5
-8 11 0 6 -15 29 -34 52 -27 33 -32 46 -25 60 7 11 7 17 -1 17 -6 0 -15 11
-20 25 -5 14 -16 25 -25 25 -19 0 -20 16 -1 23 9 4 17 -2 21 -14 4 -10 11 -19
16 -19 15 0 10 13 -17 45 -17 20 -27 26 -30 17 -3 -6 -10 -9 -16 -6 -7 4 -6 9
1 13 8 5 6 13 -4 27 -14 17 -15 14 -11 -41z m57 -112 c13 -16 12 -17 -3 -4
-17 13 -22 21 -14 21 2 0 10 -8 17 -17z"/>
<path d="M1681 2834 c0 -11 3 -14 6 -6 3 7 2 16 -1 19 -3 4 -6 -2 -5 -13z"/>
<path d="M1720 2819 c0 -5 5 -7 10 -4 6 3 10 8 10 11 0 2 -4 4 -10 4 -5 0 -10
-5 -10 -11z"/>
<path d="M1671 2656 c-9 -11 -8 -17 9 -29 12 -8 18 -20 15 -29 -6 -15 22 -34
33 -23 3 3 0 5 -6 5 -7 0 -12 9 -12 20 0 11 -6 23 -14 26 -8 3 -12 13 -9 25 6
23 0 24 -16 5z"/>
<path d="M1787 2526 c-3 -8 -1 -17 6 -20 9 -3 8 -7 -3 -15 -8 -5 -11 -13 -7
-17 11 -11 20 3 22 36 2 31 -9 40 -18 16z"/>
<path d="M1840 2393 c0 -6 5 -13 11 -15 8 -3 6 -10 -5 -21 -10 -9 -16 -27 -13
-39 3 -22 4 -22 11 -3 4 11 12 28 18 39 7 14 6 23 -6 34 -9 10 -16 11 -16 5z"/>
<path d="M1841 2282 c-14 -27 1 -118 19 -107 5 3 16 -5 24 -17 9 -12 16 -18
16 -12 0 6 -11 23 -25 38 -28 30 -31 38 -12 35 30 -4 47 2 47 16 0 18 -12 19
-27 4 -7 -7 -12 -6 -16 5 -4 10 -1 16 8 16 21 0 19 13 -5 27 -16 11 -21 10
-29 -5z"/>
<path d="M1896 2202 c-3 -6 -1 -14 5 -17 14 -9 20 -2 10 14 -6 8 -11 9 -15 3z"/>
<path d="M1905 2080 c3 -5 8 -10 11 -10 2 0 4 5 4 10 0 6 -5 10 -11 10 -5 0
-7 -4 -4 -10z"/>
<path d="M2006 2015 c4 -8 11 -15 16 -15 6 0 5 6 -2 15 -7 8 -14 15 -16 15 -2
0 -1 -7 2 -15z"/>
<path d="M1950 2001 c0 -5 5 -13 10 -16 6 -3 10 -2 10 4 0 5 -4 13 -10 16 -5
3 -10 2 -10 -4z"/>
<path d="M2078 1859 c35 -31 47 -33 36 -6 -3 9 -12 13 -20 10 -7 -3 -17 2 -20
11 -3 9 -11 16 -18 16 -6 0 4 -14 22 -31z"/>
<path d="M1977 1851 c3 -11 11 -22 19 -25 11 -4 11 0 -2 19 -20 30 -24 31 -17
6z"/>
<path d="M2191 1479 c-1 -9 8 -28 20 -43 11 -14 16 -26 11 -26 -6 0 -12 -6
-15 -14 -4 -9 0 -12 12 -9 20 5 23 40 4 51 -7 4 -16 19 -22 32 -6 15 -10 19
-10 9z"/>
<path d="M2289 1448 c-9 -18 -3 -48 9 -48 11 0 12 3 2 15 -6 8 -9 19 -5 25 3
5 4 10 1 10 -3 0 -7 -1 -7 -2z"/>
<path d="M2220 1350 c0 -5 5 -10 10 -10 6 0 10 5 10 10 0 6 -4 10 -10 10 -5 0
-10 -4 -10 -10z"/>
<path d="M2277 1289 c7 -7 15 -10 18 -7 3 3 -2 9 -12 12 -14 6 -15 5 -6 -5z"/>
<path d="M2280 1249 c0 -5 5 -7 10 -4 6 3 10 8 10 11 0 2 -4 4 -10 4 -5 0 -10
-5 -10 -11z"/>
<path d="M2310 1101 c0 -5 7 -15 17 -22 15 -13 15 -12 4 9 -12 23 -21 28 -21
13z"/>
<path d="M2380 1018 c0 -9 5 -20 11 -23 17 -11 18 -2 3 19 -12 17 -14 17 -14
4z"/>
<path d="M4757 2820 c-27 -42 -25 -49 10 -25 19 14 38 65 23 65 -3 0 -18 -18
-33 -40z"/>
<path d="M4410 2219 c0 -5 5 -7 10 -4 6 3 10 8 10 11 0 2 -4 4 -10 4 -5 0 -10
-5 -10 -11z"/>
<path d="M4120 1850 c0 -5 5 -10 10 -10 6 0 10 5 10 10 0 6 -4 10 -10 10 -5 0
-10 -4 -10 -10z"/>
<path d="M4027 2843 c-4 -3 -7 -15 -7 -25 0 -19 -8 -19 -57 -1 -7 3 -13 0 -13
-6 0 -6 -9 -11 -20 -11 -11 0 -20 -4 -20 -9 0 -13 -44 0 -53 16 -4 7 -15 13
-22 13 -8 0 -15 5 -15 10 0 6 -4 10 -10 10 -5 0 -10 -6 -10 -14 0 -16 -71 -76
-89 -76 -6 0 -11 -7 -11 -15 0 -19 24 -19 40 0 14 17 34 10 24 -8 -3 -7 4 0
17 15 31 34 60 42 85 23 10 -8 31 -15 45 -15 16 0 33 -9 43 -22 14 -20 15 -21
9 -3 -3 11 -11 26 -17 33 -8 11 -5 14 14 12 48 -4 81 0 75 9 -3 5 -1 12 5 16
5 3 10 17 10 31 0 23 -10 31 -23 17z"/>
<path d="M4110 2830 c0 -19 3 -21 12 -12 9 9 9 15 0 24 -9 9 -12 7 -12 -12z"/>
<path d="M4102 2728 c-16 -16 -15 -28 3 -28 8 0 15 9 15 20 0 23 -2 24 -18 8z"/>
<path d="M4039 2691 c-31 -25 -21 -35 11 -11 14 10 22 21 19 25 -3 3 -17 -3
-30 -14z"/>
<path d="M3835 2660 c-3 -5 -1 -10 4 -10 6 0 11 5 11 10 0 6 -2 10 -4 10 -3 0
-8 -4 -11 -10z"/>
<path d="M4180 2650 c8 -5 20 -10 25 -10 6 0 3 5 -5 10 -8 5 -19 10 -25 10 -5
0 -3 -5 5 -10z"/>
<path d="M3787 2624 c-20 -27 -12 -31 17 -9 13 10 16 19 10 24 -5 6 -16 0 -27
-15z"/>
<path d="M3970 2641 c0 -5 -3 -16 -6 -25 -10 -26 12 -18 24 9 10 21 9 25 -3
25 -8 0 -15 -4 -15 -9z"/>
<path d="M3190 2621 c0 -22 16 -36 24 -22 8 12 -3 41 -15 41 -5 0 -9 -9 -9
-19z"/>
<path d="M4042 2563 c-23 -29 -28 -43 -14 -43 8 0 52 54 52 65 0 13 -18 3 -38
-22z"/>
<path d="M2784 2547 c-13 -15 -17 -80 -4 -72 14 9 40 67 34 76 -7 12 -17 11
-30 -4z"/>
<path d="M3812 2481 c-16 -22 -19 -35 -13 -57 7 -28 8 -28 15 -7 4 13 5 27 1
32 -3 5 -1 12 5 16 14 9 32 45 22 45 -4 0 -18 -13 -30 -29z"/>
<path d="M4063 2483 c9 -9 19 -14 23 -11 10 10 -6 28 -24 28 -15 0 -15 -1 1
-17z"/>
<path d="M3850 2451 c0 -11 25 -21 50 -21 10 0 20 -5 22 -10 2 -7 11 -5 23 4
11 8 17 18 12 22 -4 4 -12 3 -18 -3 -8 -8 -22 -8 -50 2 -22 8 -39 10 -39 6z"/>
<path d="M4105 2450 c-3 -5 1 -10 9 -10 9 0 16 5 16 10 0 6 -4 10 -9 10 -6 0
-13 -4 -16 -10z"/>
<path d="M3240 2400 c0 -5 5 -10 10 -10 6 0 10 5 10 10 0 6 -4 10 -10 10 -5 0
-10 -4 -10 -10z"/>
<path d="M3365 2383 c-11 -3 -24 -10 -30 -15 -12 -13 35 0 50 13 5 5 7 8 5 8
-3 -1 -14 -3 -25 -6z"/>
<path d="M4061 2346 c-8 -10 -9 -16 -1 -21 5 -3 13 1 16 10 9 22 -1 29 -15 11z"/>
<path d="M4135 2350 c3 -5 15 -10 26 -10 10 0 19 5 19 10 0 6 -12 10 -26 10
-14 0 -23 -4 -19 -10z"/>
<path d="M2895 2290 c3 -5 8 -10 11 -10 2 0 4 5 4 10 0 6 -5 10 -11 10 -5 0
-7 -4 -4 -10z"/>
<path d="M2560 2240 c0 -5 5 -10 10 -10 6 0 10 5 10 10 0 6 -4 10 -10 10 -5 0
-10 -4 -10 -10z"/>
<path d="M2515 2179 c-10 -15 3 -25 16 -12 7 7 7 13 1 17 -6 3 -14 1 -17 -5z"/>
<path d="M3770 2200 c0 -5 5 -10 11 -10 5 0 7 5 4 10 -3 6 -8 10 -11 10 -2 0
-4 -4 -4 -10z"/>
<path d="M3515 1810 c3 -5 11 -10 16 -10 6 0 7 5 4 10 -3 6 -11 10 -16 10 -6
0 -7 -4 -4 -10z"/>
<path d="M2470 786 c0 -2 7 -6 15 -10 8 -3 15 -1 15 4 0 6 -7 10 -15 10 -8 0
-15 -2 -15 -4z"/>
<path d="M2562 582 c-9 -6 -7 -14 8 -30 12 -12 26 -22 32 -22 6 0 0 9 -13 21
-19 17 -21 22 -9 29 8 6 11 10 5 10 -5 0 -16 -4 -23 -8z"/>
<path d="M3207 674 c-4 -4 -7 -14 -7 -23 0 -11 3 -12 11 -4 6 6 10 16 7 23 -2
6 -7 8 -11 4z"/>
<path d="M3224 5486 c-24 -25 -44 -50 -44 -56 0 -7 -6 -10 -14 -7 -9 4 -22 -7
-35 -29 -27 -46 -27 -60 1 -34 13 12 29 18 40 14 10 -3 18 -1 18 3 0 5 16 15
35 23 19 8 35 17 35 22 0 4 8 8 18 8 22 0 86 76 77 91 -5 6 -12 6 -23 -3 -12
-10 -16 -10 -19 0 -9 24 -45 11 -89 -32z"/>
<path d="M3560 5512 c0 -6 4 -13 9 -17 5 -3 12 -19 16 -35 6 -26 10 -30 39
-27 38 2 38 22 0 31 -13 4 -23 11 -21 17 1 6 -8 18 -20 26 -13 9 -23 11 -23 5z"/>
<path d="M3760 5479 c0 -5 5 -7 10 -4 6 3 10 8 10 11 0 2 -4 4 -10 4 -5 0 -10
-5 -10 -11z"/>
<path d="M3831 5446 c-8 -10 -9 -16 -1 -21 5 -3 13 1 16 10 9 22 -1 29 -15 11z"/>
<path d="M3770 5437 c0 -19 21 -37 43 -37 13 0 17 -5 13 -15 -3 -9 0 -15 9
-15 23 0 18 12 -19 48 -36 35 -46 39 -46 19z"/>
<path d="M4000 5436 c0 -9 4 -16 10 -16 5 0 12 -11 16 -25 6 -24 48 -55 74
-55 20 0 10 49 -15 68 -13 11 -21 22 -18 26 3 3 -3 6 -15 6 -11 0 -27 3 -36 6
-11 4 -16 1 -16 -10z"/>
<path d="M3865 5418 c9 -29 11 -31 24 -23 16 9 13 19 -10 33 -19 12 -20 12
-14 -10z"/>
<path d="M4295 5410 c3 -5 10 -10 16 -10 5 0 9 5 9 10 0 6 -7 10 -16 10 -8 0
-12 -4 -9 -10z"/>
<path d="M3680 5390 c0 -5 5 -10 10 -10 6 0 10 5 10 10 0 6 -4 10 -10 10 -5 0
-10 -4 -10 -10z"/>
<path d="M3725 5370 c3 -5 11 -10 16 -10 6 0 7 5 4 10 -3 6 -11 10 -16 10 -6
0 -7 -4 -4 -10z"/>
<path d="M3725 5335 c-5 -11 -13 -23 -19 -27 -7 -5 -4 -8 7 -8 9 0 17 -7 17
-15 0 -13 2 -14 14 -3 8 7 10 18 6 23 -4 6 -10 19 -12 30 l-5 20 -8 -20z"/>
<path d="M3175 5331 c-7 -12 12 -24 25 -16 11 7 4 25 -10 25 -5 0 -11 -4 -15
-9z"/>
<path d="M4242 5303 c-30 -35 -34 -37 -46 -20 -12 15 -46 24 -46 12 0 -21 32
-75 44 -75 8 0 17 -6 19 -12 3 -8 6 -5 6 6 1 13 6 17 21 13 25 -6 26 2 3 19
-24 16 -8 32 17 16 12 -7 21 -8 25 -2 9 15 -4 30 -26 30 -19 0 -19 0 0 19 10
10 25 21 32 24 11 4 11 6 -1 6 -9 1 -31 -16 -48 -36z"/>
<path d="M4402 5314 c2 -9 14 -24 27 -32 23 -16 24 -16 16 8 -11 37 -50 58
-43 24z"/>
<path d="M3825 5309 c-11 -17 1 -21 15 -4 8 9 8 15 2 15 -6 0 -14 -5 -17 -11z"/>
<path d="M4296 5310 c-15 -5 -16 -9 -7 -14 7 -5 18 -3 24 3 14 14 6 20 -17 11z"/>
<path d="M4460 5306 c0 -9 7 -16 16 -16 17 0 14 22 -4 28 -7 2 -12 -3 -12 -12z"/>
<path d="M3127 5293 c-16 -15 -6 -30 18 -25 28 5 33 17 9 26 -19 7 -19 7 -27
-1z"/>
<path d="M3790 5296 c0 -2 8 -10 18 -17 15 -13 16 -12 3 4 -13 16 -21 21 -21
13z"/>
<path d="M4330 5291 c0 -5 5 -13 10 -16 6 -3 10 -2 10 4 0 5 -4 13 -10 16 -5
3 -10 2 -10 -4z"/>
<path d="M4495 5270 c-3 -5 -13 -6 -22 -3 -11 4 -14 3 -9 -6 4 -6 3 -18 -3
-25 -8 -9 -8 -21 -2 -37 9 -22 10 -22 11 -4 1 11 4 14 7 7 2 -6 9 -9 14 -6 6
4 6 11 -1 19 -16 19 -3 37 20 30 26 -8 35 12 11 25 -12 6 -22 6 -26 0z"/>
<path d="M4313 5232 c0 -12 5 -22 9 -22 11 0 10 12 -2 30 -7 12 -9 10 -7 -8z"/>
<path d="M4550 5241 c0 -5 5 -13 10 -16 6 -3 10 -2 10 4 0 5 -4 13 -10 16 -5
3 -10 2 -10 -4z"/>
<path d="M4580 5154 c18 -23 32 -34 44 -34 13 0 -14 29 -38 42 -20 11 -20 10
-6 -8z"/>
<path d="M4640 5151 c0 -5 9 -11 21 -14 16 -4 18 -3 8 9 -13 16 -29 19 -29 5z"/>
<path d="M4363 5108 c10 -7 28 -21 39 -30 24 -21 28 -21 48 -8 13 8 13 10 -2
10 -9 0 -23 7 -31 15 -8 7 -28 17 -43 20 -26 5 -27 4 -11 -7z"/>
<path d="M4617 5113 c-19 -5 -18 -30 1 -26 6 2 22 -11 36 -28 21 -24 26 -27
26 -12 0 27 -42 71 -63 66z"/>
<path d="M4695 5080 c3 -5 8 -10 11 -10 2 0 4 5 4 10 0 6 -5 10 -11 10 -5 0
-7 -4 -4 -10z"/>
<path d="M4730 5046 c0 -9 5 -16 10 -16 6 0 10 4 10 9 0 6 -4 13 -10 16 -5 3
-10 -1 -10 -9z"/>
<path d="M2395 5020 c-3 -5 -1 -10 4 -10 6 0 11 5 11 10 0 6 -2 10 -4 10 -3 0
-8 -4 -11 -10z"/>
<path d="M2476 4995 c-3 -9 0 -15 9 -15 8 0 15 7 15 15 0 8 -4 15 -9 15 -5 0
-11 -7 -15 -15z"/>
<path d="M2387 4986 c-10 -8 -14 -16 -10 -19 5 -3 14 3 21 14 14 22 13 23 -11
5z"/>
<path d="M4716 4954 c20 -35 23 -48 14 -54 -15 -9 -4 -30 15 -30 14 0 35 29
35 49 0 6 -6 11 -14 11 -8 0 -24 16 -36 35 -32 52 -44 42 -14 -11z"/>
<path d="M4644 4974 c3 -8 6 -18 6 -20 0 -2 5 -4 10 -4 16 0 11 27 -6 34 -12
5 -15 2 -10 -10z"/>
<path d="M2441 4955 c1 -19 18 -51 18 -35 0 8 -4 22 -9 30 -5 8 -9 11 -9 5z"/>
<path d="M2420 4905 c-6 -14 -14 -36 -20 -50 -5 -14 -6 -25 -1 -25 8 0 23 32
36 78 9 30 -3 28 -15 -3z"/>
<path d="M4674 4919 c-9 -15 12 -33 30 -26 9 4 16 13 16 22 0 17 -35 21 -46 4z"/>
<path d="M4176 4885 c-3 -9 -2 -14 3 -10 5 3 11 0 13 -6 3 -9 12 -9 34 -2 40
13 37 27 -7 31 -26 2 -38 -1 -43 -13z"/>
<path d="M4550 4848 c0 -9 7 -19 16 -22 25 -10 27 -1 4 19 -17 15 -20 16 -20
3z"/>
<path d="M4410 4821 c0 -6 5 -13 10 -16 6 -3 10 1 10 9 0 9 -4 16 -10 16 -5 0
-10 -4 -10 -9z"/>
<path d="M3363 4668 c-2 -5 -15 -8 -29 -8 -15 0 -23 -4 -19 -11 4 -5 19 -7 34
-4 19 4 35 0 53 -15 14 -11 29 -20 32 -20 3 0 22 -11 42 -25 20 -14 43 -25 50
-25 19 0 65 -41 58 -52 -7 -11 7 -10 44 3 22 7 36 7 51 -1 14 -7 21 -7 21 0 0
5 -6 10 -14 10 -8 0 -18 9 -21 20 -10 30 -34 50 -61 50 -15 0 -24 6 -24 15 0
9 -11 20 -24 24 -13 5 -26 16 -29 24 -4 11 -26 16 -82 19 -42 2 -79 0 -82 -4z"/>
<path d="M2923 4637 l-42 -22 30 -18 c38 -21 50 -22 43 -2 -4 11 0 15 16 15
16 0 20 -4 16 -15 -4 -10 1 -15 15 -15 11 0 18 -4 14 -9 -10 -17 9 -20 30 -5
15 11 16 14 3 14 -19 0 -30 24 -22 45 5 11 -1 15 -18 15 -13 0 -28 4 -33 9 -6
6 -26 1 -52 -12z"/>
<path d="M3260 4633 c0 -7 33 -32 43 -33 16 0 5 16 -18 27 -14 6 -25 9 -25 6z"/>
<path d="M3997 4603 c-15 -15 -5 -40 22 -56 43 -25 47 -21 13 12 -23 21 -28
31 -19 40 7 7 7 11 1 11 -6 0 -14 -3 -17 -7z"/>
<path d="M4111 4573 c7 -12 15 -20 18 -17 3 2 -3 12 -13 22 -17 16 -18 16 -5
-5z"/>
<path d="M4151 4567 c-17 -17 -13 -29 5 -19 9 5 26 7 37 4 14 -3 18 -1 15 9
-6 17 -43 20 -57 6z"/>
<path d="M3093 4547 c-11 -15 -27 -27 -34 -27 -30 0 6 -15 42 -17 33 -2 39 0
39 17 0 11 -4 20 -9 20 -5 0 -11 8 -13 17 -3 14 -7 13 -25 -10z m27 -17 c0 -5
-4 -10 -10 -10 -5 0 -10 5 -10 10 0 6 5 10 10 10 6 0 10 -4 10 -10z"/>
<path d="M2687 4552 c-17 -7 -17 -9 7 -27 13 -10 23 -22 20 -27 -3 -4 -2 -8 3
-8 17 0 28 16 28 40 0 27 -24 36 -58 22z"/>
<path d="M2530 4544 c-9 -3 -21 -13 -27 -23 -9 -14 -7 -20 9 -30 14 -8 18 -9
13 -1 -4 6 3 22 16 36 22 23 20 26 -11 18z"/>
<path d="M3176 4534 c-3 -8 -11 -12 -17 -8 -8 4 -9 3 -5 -5 5 -7 -1 -20 -13
-30 -20 -18 -20 -18 12 -18 18 0 38 4 44 9 9 7 16 3 24 -15 11 -24 49 -45 49
-26 0 5 -7 9 -16 9 -8 0 -13 4 -10 9 8 13 -18 60 -42 77 -17 12 -21 12 -26 -2z"/>
<path d="M3960 4521 c0 -5 5 -13 10 -16 6 -3 10 -2 10 4 0 5 -4 13 -10 16 -5
3 -10 2 -10 -4z"/>
<path d="M2660 4512 c0 -12 19 -26 26 -19 2 2 -2 10 -11 17 -9 8 -15 8 -15 2z"/>
<path d="M2735 4474 l-28 -36 24 8 c13 4 31 7 40 6 12 0 16 8 15 29 -1 39 -18
37 -51 -7z"/>
<path d="M3928 4503 c7 -3 16 -2 19 1 4 3 -2 6 -13 5 -11 0 -14 -3 -6 -6z"/>
<path d="M2540 4496 c0 -2 7 -9 15 -16 9 -7 15 -8 15 -2 0 5 -7 12 -15 16 -8
3 -15 4 -15 2z"/>
<path d="M3622 4488 c-7 -7 -12 -9 -12 -6 0 3 -26 -7 -57 -23 -31 -16 -61 -29
-67 -29 -6 0 -22 -9 -36 -20 l-25 -19 28 3 c15 1 30 5 33 8 3 4 19 2 37 -3 37
-10 47 -4 23 14 -22 16 -9 28 50 45 23 7 45 19 48 27 7 18 -5 20 -22 3z"/>
<path d="M3980 4434 c0 -11 6 -14 23 -9 38 12 43 25 9 25 -22 0 -32 -5 -32
-16z"/>
<path d="M3740 4427 c-21 -8 -22 -11 -7 -14 9 -3 17 -9 17 -14 0 -16 38 -10
44 7 8 21 8 21 -12 26 -10 3 -29 1 -42 -5z"/>
<path d="M3635 4410 c3 -5 17 -10 30 -10 13 0 27 5 30 10 4 6 -8 10 -30 10
-22 0 -34 -4 -30 -10z"/>
<path d="M2920 4393 c0 -12 -6 -23 -12 -26 -7 -2 -10 -8 -6 -12 4 -4 14 -3 21
3 16 14 27 6 27 -20 0 -10 7 -18 15 -18 8 0 15 -7 15 -15 0 -19 7 -19 26 0 13
12 11 16 -11 31 -14 9 -25 25 -25 36 0 14 -5 18 -15 14 -8 -3 -19 2 -24 12 -9
15 -10 15 -11 -5z"/>
<path d="M3675 4360 c3 -5 8 -10 11 -10 2 0 4 5 4 10 0 6 -5 10 -11 10 -5 0
-7 -4 -4 -10z"/>
<path d="M3274 4338 c-18 -20 -18 -21 -1 -15 10 4 23 7 28 7 5 0 9 7 9 15 0
21 -14 19 -36 -7z"/>
<path d="M3375 4340 c-3 -5 -14 -10 -23 -10 -9 0 -25 -7 -36 -15 -17 -13 -15
-14 20 -8 48 7 76 21 69 34 -8 12 -22 12 -30 -1z"/>
<path d="M3911 4314 c0 -11 3 -14 6 -6 3 7 2 16 -1 19 -3 4 -6 -2 -5 -13z"/>
<path d="M3067 4300 c3 -11 11 -19 17 -17 17 6 13 31 -6 35 -12 2 -15 -2 -11
-18z"/>
<path d="M3633 4244 c-7 -19 2 -28 22 -21 19 8 19 23 0 31 -9 3 -18 -1 -22
-10z"/>
<path d="M3500 4211 c0 -17 25 -30 40 -20 13 8 13 10 0 19 -19 12 -40 13 -40
1z"/>
<path d="M2838 4137 c-16 -6 -28 -14 -28 -19 0 -14 24 -8 50 12 27 21 20 24
-22 7z"/>
<path d="M3590 4130 c0 -5 6 -10 14 -10 8 0 18 5 21 10 3 6 -3 10 -14 10 -12
0 -21 -4 -21 -10z"/>
<path d="M2910 4070 c0 -5 7 -10 15 -10 8 0 15 5 15 10 0 6 -7 10 -15 10 -8 0
-15 -4 -15 -10z"/>
<path d="M3022 4053 c15 -15 31 -23 35 -19 9 8 -32 46 -50 46 -7 0 1 -12 15
-27z"/>
<path d="M665 4049 c-9 -14 -2 -20 14 -10 8 6 9 11 3 15 -6 3 -14 1 -17 -5z"/>
<path d="M3480 4044 c0 -8 5 -12 10 -9 6 3 10 10 10 16 0 5 -4 9 -10 9 -5 0
-10 -7 -10 -16z"/>
<path d="M630 4032 c0 -5 -10 -12 -22 -15 -12 -4 -19 -9 -16 -12 3 -4 19 0 34
8 17 9 23 17 15 21 -6 4 -11 3 -11 -2z"/>
<path d="M710 4030 c0 -5 9 -10 20 -10 11 0 20 5 20 10 0 6 -9 10 -20 10 -11
0 -20 -4 -20 -10z"/>
<path d="M3380 4020 c0 -5 5 -10 11 -10 5 0 7 5 4 10 -3 6 -8 10 -11 10 -2 0
-4 -4 -4 -10z"/>
<path d="M696 3993 c-3 -4 -1 -12 5 -20 9 -10 8 -13 0 -13 -7 0 -9 -5 -5 -11
4 -7 9 -7 13 -2 3 6 12 12 19 14 9 3 7 9 -7 21 -11 9 -22 14 -25 11z"/>
<path d="M560 3961 c0 -5 9 -11 19 -14 14 -3 18 -1 14 9 -6 15 -33 19 -33 5z"/>
<path d="M660 3940 c0 -5 5 -10 10 -10 6 0 10 5 10 10 0 6 -4 10 -10 10 -5 0
-10 -4 -10 -10z"/>
<path d="M2325 3870 c-6 -10 -5 -11 14 -14 5 0 13 -4 17 -8 17 -18 26 -6 9 12
-20 22 -31 25 -40 10z"/>
<path d="M2403 3853 c-15 -6 -17 -33 -3 -33 6 0 10 -6 10 -14 0 -8 9 -18 20
-21 11 -4 18 -10 15 -15 -3 -4 4 -6 14 -3 34 9 32 41 -3 68 -18 14 -35 25 -37
24 -2 0 -10 -3 -16 -6z"/>
<path d="M3060 3690 c0 -5 5 -10 11 -10 5 0 7 5 4 10 -3 6 -8 10 -11 10 -2 0
-4 -4 -4 -10z"/>
<path d="M2360 3661 c0 -6 4 -13 10 -16 6 -3 7 1 4 9 -7 18 -14 21 -14 7z"/>
<path d="M3180 3650 c0 -13 5 -20 13 -17 6 2 12 10 12 17 0 7 -6 15 -12 18 -8
2 -13 -5 -13 -18z"/>
<path d="M2375 3611 c22 -26 114 -98 160 -125 l30 -17 -31 28 c-38 34 -143
117 -164 128 -9 5 -7 -1 5 -14z"/>
<path d="M3092 3610 c0 -14 2 -19 5 -12 2 6 2 18 0 25 -3 6 -5 1 -5 -13z"/>
<path d="M3250 3622 c0 -5 7 -15 15 -22 8 -7 15 -9 15 -6 0 4 -7 14 -15 22 -8
9 -15 11 -15 6z"/>
<path d="M2817 3581 c3 -12 9 -21 14 -21 14 0 11 16 -5 29 -12 10 -13 8 -9 -8z"/>
<path d="M2940 3580 c0 -5 5 -10 11 -10 5 0 7 5 4 10 -3 6 -8 10 -11 10 -2 0
-4 -4 -4 -10z"/>
<path d="M3304 3579 c-3 -6 4 -18 16 -26 22 -15 22 -17 5 -29 -10 -8 -15 -17
-11 -21 3 -4 15 2 26 13 19 19 18 19 -5 46 -15 17 -26 24 -31 17z"/>
<path d="M3105 3550 c3 -5 8 -10 11 -10 2 0 4 5 4 10 0 6 -5 10 -11 10 -5 0
-7 -4 -4 -10z"/>
<path d="M2730 3511 c0 -6 5 -13 10 -16 6 -3 10 1 10 9 0 9 -4 16 -10 16 -5 0
-10 -4 -10 -9z"/>
<path d="M3085 3510 c-3 -5 -1 -10 4 -10 6 0 11 5 11 10 0 6 -2 10 -4 10 -3 0
-8 -4 -11 -10z"/>
<path d="M2610 3419 c0 -10 33 -22 53 -20 9 1 29 9 44 16 26 14 24 14 -35 12
-34 -1 -62 -5 -62 -8z"/>
<path d="M3230 3420 c0 -5 5 -10 11 -10 5 0 7 5 4 10 -3 6 -8 10 -11 10 -2 0
-4 -4 -4 -10z"/>
<path d="M3047 3403 c-8 -7 11 -33 24 -33 5 0 9 9 9 20 0 19 -20 27 -33 13z"/>
<path d="M2890 3381 c0 -5 5 -13 10 -16 6 -3 10 -2 10 4 0 5 -4 13 -10 16 -5
3 -10 2 -10 -4z"/>
<path d="M2920 3291 c0 -10 30 -24 37 -17 3 3 2 9 -2 15 -8 13 -35 15 -35 2z"/>
<path d="M2824 3275 c-4 -8 -14 -15 -24 -15 -10 0 -21 -7 -24 -16 -10 -25 -7
-28 12 -12 9 8 25 18 35 21 9 4 17 13 17 22 0 19 -9 19 -16 0z"/>
<path d="M2620 3260 c0 -5 5 -10 11 -10 5 0 7 5 4 10 -3 6 -8 10 -11 10 -2 0
-4 -4 -4 -10z"/>
<path d="M5030 3260 c0 -5 5 -10 10 -10 6 0 10 5 10 10 0 6 -4 10 -10 10 -5 0
-10 -4 -10 -10z"/>
<path d="M2840 3191 c0 -11 5 -23 10 -26 6 -3 10 3 10 14 0 11 -4 23 -10 26
-5 3 -10 -3 -10 -14z"/>
<path d="M4975 3171 c-3 -5 -1 -12 5 -16 5 -3 10 1 10 9 0 18 -6 21 -15 7z"/>
<path d="M3043 23 c9 -2 23 -2 30 0 6 3 -1 5 -18 5 -16 0 -22 -2 -12 -5z"/>
</g>
</svg>
